<?xml version="1.0" encoding="iso-8859-1"?>
<!-- Generator: Adobe Illustrator 19.0.0, SVG Export Plug-In . SVG Version: 6.00 Build 0)  -->
<svg version="1.1" id="Capa_1" xmlns="http://www.w3.org/2000/svg" xmlns:xlink="http://www.w3.org/1999/xlink" x="0px" y="0px"
	 viewBox="0 0 512.001 512.001" style="enable-background:new 0 0 512.001 512.001;" xml:space="preserve">
<path style="fill:#61AFF6;" d="M490.408,469.144H21.592c-7.901,0-14.306-6.405-14.306-14.306V27.944
	c0-7.901,6.405-14.306,14.306-14.306h468.815c7.901,0,14.306,6.405,14.306,14.306v426.894
	C504.713,462.739,498.309,469.144,490.408,469.144z"/>
<path style="fill:#55A2F0;" d="M490.408,13.638h-30.385v426.384c0,7.901-6.405,14.306-14.306,14.306H7.287v0.51
	c0,7.901,6.405,14.306,14.306,14.306h468.815c7.901,0,14.306-6.405,14.306-14.306V27.944
	C504.713,20.043,498.309,13.638,490.408,13.638z"/>
<path style="fill:#E6E6E6;" d="M47.865,313.317L47.865,313.317c0,7.071,5.732,12.802,12.802,12.802h206.471
	c7.071,0,12.802-5.732,12.802-12.802l0,0c0-7.071-5.732-12.802-12.802-12.802H60.667C53.596,300.515,47.865,306.247,47.865,313.317z
	"/>
<g>
	<path style="fill:#FFB125;" d="M376.002,351.724h-37.447c-3.8,0-6.881-3.081-6.881-6.881v-37.447c0-3.8,3.081-6.881,6.881-6.881
		h37.447c3.8,0,6.881,3.081,6.881,6.881v37.447C382.883,348.643,379.803,351.724,376.002,351.724z"/>
	<path style="fill:#FFB125;" d="M457.254,351.724h-37.447c-3.8,0-6.881-3.081-6.881-6.881v-37.447c0-3.8,3.081-6.881,6.881-6.881
		h37.447c3.8,0,6.881,3.081,6.881,6.881v37.447C464.135,348.643,461.055,351.724,457.254,351.724z"/>
	<path style="fill:#FFB125;" d="M376.002,431.257h-37.447c-3.8,0-6.881-3.081-6.881-6.881v-37.447c0-3.8,3.081-6.881,6.881-6.881
		h37.447c3.8,0,6.881,3.081,6.881,6.881v37.447C382.883,428.176,379.803,431.257,376.002,431.257z"/>
	<path style="fill:#FFB125;" d="M457.254,431.257h-37.447c-3.8,0-6.881-3.081-6.881-6.881v-37.447c0-3.8,3.081-6.881,6.881-6.881
		h37.447c3.8,0,6.881,3.081,6.881,6.881v37.447C464.135,428.176,461.055,431.257,457.254,431.257z"/>
</g>
<path style="fill:#F2F2F2;" d="M450.442,246.443H61.558c-7.563,0-13.693-6.131-13.693-13.693V68.538
	c0-7.563,6.131-13.693,13.693-13.693h388.885c7.563,0,13.693,6.131,13.693,13.693V232.75
	C464.135,240.312,458.005,246.443,450.442,246.443z"/>
<path style="fill:#FF6D3A;" d="M257.897,498.362H74.355c-6.208,0-10.751-4.583-10.152-10.177l20.084-187.67h163.677l20.085,187.67
	C268.648,493.779,264.105,498.362,257.897,498.362z"/>
<path style="fill:#F33939;" d="M268.049,488.185l-20.084-187.67h-45.016l20.084,187.67c0.599,5.594-3.944,10.177-10.152,10.177
	h45.016C264.106,498.362,268.648,493.779,268.049,488.185z"/>
<polygon style="fill:#775146;" points="189.849,498.362 227.945,498.362 212.267,300.515 179.791,300.515 "/>
<path style="fill:#E6E6E6;" d="M450.44,54.844h-31.526c0,0.031,0.005,0.061,0.005,0.092v164.212c0,7.563-6.131,13.693-13.693,13.693
	H47.867c0.05,7.52,6.157,13.602,13.689,13.602H450.44c7.563,0,13.693-6.131,13.693-13.693V68.537
	C464.133,60.975,458.002,54.844,450.44,54.844z"/>
<path d="M504.713,153.963c-4.025,0-7.287,3.262-7.287,7.287v293.589c0,3.87-3.149,7.019-7.019,7.019H291.615
	c-4.025,0-7.287,3.262-7.287,7.287c0,4.024,3.262,7.287,7.287,7.287h198.793c11.906,0,21.592-9.686,21.592-21.592V161.25
	C512,157.226,508.738,153.963,504.713,153.963z"/>
<path d="M490.408,6.352H21.592C9.686,6.352,0,16.038,0,27.944v426.894c0,11.906,9.686,21.592,21.592,21.592h19.046
	c4.025,0,7.287-3.262,7.287-7.287c0-4.024-3.262-7.287-7.287-7.287H21.592c-3.87,0-7.019-3.149-7.019-7.019V27.944
	c0-3.87,3.149-7.019,7.019-7.019h468.816c3.87,0,7.019,3.149,7.019,7.019v87.637c0,4.024,3.262,7.287,7.287,7.287
	s7.287-3.262,7.287-7.287V27.944C512,16.038,502.314,6.352,490.408,6.352z"/>
<path d="M287.227,313.317c0-11.077-9.011-20.089-20.088-20.089h-19.174h-35.698h-32.475H84.287h-23.62
	c-11.077,0-20.089,9.012-20.089,20.089s9.012,20.089,20.089,20.089H73.44L56.958,487.409c-0.494,4.616,0.935,9.052,4.026,12.491
	c3.283,3.653,8.157,5.749,13.372,5.749h115.493h38.096h29.952c5.215,0,10.089-2.095,13.372-5.749
	c3.09-3.438,4.52-7.874,4.026-12.491l-16.482-154.003h8.326C278.215,333.406,287.227,324.394,287.227,313.317z M60.667,318.833
	c-3.042,0-5.516-2.474-5.516-5.516c0-3.041,2.474-5.516,5.516-5.516H76.18l-1.181,11.032L60.667,318.833L60.667,318.833z
	 M74.356,491.075c-1.086,0-2.009-0.334-2.533-0.917c-0.306-0.341-0.425-0.722-0.375-1.199l19.388-181.158h82.03l9.317,183.274
	H74.356z M196.774,491.075l-9.317-183.274h18.078l14.523,183.274H196.774z M260.805,488.96c0.05,0.476-0.068,0.857-0.375,1.198
	c-0.524,0.583-1.447,0.917-2.533,0.917h-23.22l-14.523-183.274h21.263L260.805,488.96z M256.072,307.801h11.066
	c3.041,0,5.515,2.474,5.515,5.516s-2.474,5.516-5.515,5.516h-9.885L256.072,307.801z"/>
<path d="M390.17,307.396c0-7.812-6.356-14.168-14.168-14.168h-37.447c-7.812,0-14.168,6.356-14.168,14.168v37.447
	c0,7.812,6.356,14.167,14.168,14.167h37.447c7.812,0,14.168-6.355,14.168-14.167V307.396z M375.597,344.438H338.96v-36.636h36.637
	V344.438z"/>
<path d="M471.422,307.396c0-7.812-6.356-14.168-14.168-14.168h-37.447c-7.812,0-14.168,6.356-14.168,14.168v37.447
	c0,7.812,6.356,14.167,14.168,14.167h37.447c7.812,0,14.168-6.355,14.168-14.167V307.396z M456.849,344.438h-36.637v-36.636h36.637
	V344.438z"/>
<path d="M376.002,372.761h-37.447c-7.812,0-14.168,6.356-14.168,14.168v37.447c0,7.812,6.356,14.168,14.168,14.168h37.447
	c7.812,0,14.168-6.356,14.168-14.168v-37.447C390.17,379.116,383.814,372.761,376.002,372.761z M375.597,423.97H338.96v-36.637
	h36.637V423.97z"/>
<path d="M457.254,372.761h-37.447c-7.812,0-14.168,6.356-14.168,14.168v37.447c0,7.812,6.356,14.168,14.168,14.168h37.447
	c7.812,0,14.168-6.356,14.168-14.168v-37.447C471.422,379.116,465.066,372.761,457.254,372.761z M456.849,423.97h-36.637v-36.637
	h36.637V423.97z"/>
<path d="M471.422,68.538c0-11.568-9.412-20.98-20.98-20.98H61.558c-11.568,0-20.98,9.412-20.98,20.98V232.75
	c0,11.568,9.412,20.98,20.98,20.98h388.884c11.568,0,20.98-9.411,20.98-20.98L471.422,68.538L471.422,68.538z M456.849,232.75
	c0,3.533-2.874,6.407-6.407,6.407H61.558c-3.533,0-6.407-2.874-6.407-6.407V68.538c0-3.533,2.874-6.407,6.407-6.407h388.884
	c3.533,0,6.407,2.874,6.407,6.407L456.849,232.75L456.849,232.75z"/>
<g>
	<path style="fill:#FF6D3A;" d="M114.896,183.221c0-0.355,0.118-0.829,0.236-1.302l22.013-72.192
		c1.302-4.142,6.627-6.154,12.071-6.154s10.77,2.012,12.071,6.154l22.131,72.192c0.119,0.473,0.237,0.947,0.237,1.302
		c0,4.379-6.746,7.574-11.835,7.574c-2.959,0-5.326-0.947-6.036-3.432l-4.023-14.793H136.79l-4.023,14.793
		c-0.71,2.485-3.077,3.432-6.035,3.432C121.642,190.795,114.896,187.6,114.896,183.221z M157.856,158.368l-8.64-31.717l-8.64,31.717
		H157.856z"/>
	<path style="fill:#FF6D3A;" d="M270.046,104.284c3.906,0,5.563,4.26,5.563,8.166c0,4.497-2.012,8.402-5.563,8.402h-16.332v64.263
		c0,3.787-4.615,5.681-9.23,5.681s-9.231-1.894-9.231-5.681v-64.263H218.92c-3.55,0-5.562-3.905-5.562-8.402
		c0-3.906,1.656-8.166,5.562-8.166C218.92,104.284,270.046,104.284,270.046,104.284z"/>
	<path style="fill:#FF6D3A;" d="M360.341,160.144c-1.538,2.604-3.905,3.432-6.154,3.432c-2.13,0-4.379-0.71-5.799-3.432
		l-11.243-20.592v45.563c0,3.787-4.615,5.681-9.23,5.681c-4.616,0-9.231-1.894-9.231-5.681v-71.6c0-6.746,4.615-9.231,9.231-9.231
		c6.627,0,9.468,0.71,14.319,9.231l12.19,21.303l12.189-21.303c4.853-8.521,7.692-9.231,14.32-9.231c4.733,0,9.23,2.485,9.23,9.231
		v71.6c0,3.787-4.615,5.681-9.23,5.681c-4.616,0-9.231-1.894-9.231-5.681v-44.38L360.341,160.144z"/>
</g>
<g>
</g>
<g>
</g>
<g>
</g>
<g>
</g>
<g>
</g>
<g>
</g>
<g>
</g>
<g>
</g>
<g>
</g>
<g>
</g>
<g>
</g>
<g>
</g>
<g>
</g>
<g>
</g>
<g>
</g>
</svg>
