<svg height="480pt" viewBox="0 -19 480 480" width="480pt" xmlns="http://www.w3.org/2000/svg"><path d="m96 193.394531v240h288v-240zm0 0" fill="#c49a6c"/><path d="m472 433.394531h-136c0-17.671875 14.328125-32 32-32 .398438 0 .800781.082031 1.199219.082031-.765625-2.628906-1.171875-5.347656-1.199219-8.082031 0-17.671875 14.328125-32 32-32s32 14.328125 32 32c22.089844 0 40 17.910157 40 40zm0 0" fill="#00ccb3"/><path d="m192 257.394531h48v24h-40c-4.417969 0-8-3.582031-8-8zm0 0" fill="#d1d3d4"/><path d="m288 241.394531v16h-48v-24h40c4.417969 0 8 3.582031 8 8zm0 0" fill="#d1d3d4"/><g fill="#e6e7e8"><path d="m288 257.394531v16c0 4.417969-3.582031 8-8 8h-40v-24zm0 0"/><path d="m200 233.394531h40v24h-48v-16c0-4.417969 3.582031-8 8-8zm0 0"/><path d="m312 321.394531h48v48h-48zm0 0"/><path d="m120 321.394531h48v48h-48zm0 0"/></g><path d="m192 305.394531h96v128h-96zm0 0" fill="#8b5e3c"/><path d="m384 193.394531h-288l128-128v80c.027344 8.824219 7.175781 15.972657 16 16h112zm0 0" fill="#ffc477"/><path d="m436 197.394531c6.628906 6.628907 6.628906 17.371094 0 24-6.628906 6.628907-17.371094 6.628907-24 0l-60-60h48zm0 0" fill="#ff6243"/><path d="m240 33.394531c-8.824219.027344-15.972656 7.175781-16 16v16l-156 156c-6.628906 6.628907-17.371094 6.628907-24 0-6.628906-6.628906-6.628906-17.371093 0-24l184.71875-184.71875c2.992188-2.996093 7.050781-4.679687 11.28125-4.679687s8.289062 1.683594 11.28125 4.679687l20.71875 20.71875zm0 0" fill="#ff6243"/><path d="m144 433.394531h-48v-49.679687c3 2.660156 5.261719 6.046875 6.558594 9.839844.480468 0 .960937-.160157 1.441406-.160157 2.6875-.019531 5.371094.25 8 .800781 18.625 3.800782 32.003906 20.1875 32 39.199219zm0 0" fill="#a97c50"/><path d="m244.71875 60.675781c.960938-.988281 2.070312-1.824219 3.28125-2.480469-6.242188-3.65625-14.164062-2.636718-19.28125 2.480469l-132.71875 132.71875h16zm0 0" fill="#ffb655"/><path d="m96 193.394531v16l16-16zm0 0" fill="#a97c50"/><path d="m192 305.394531h16v128h-16zm0 0" fill="#754c29"/><path d="m120 321.394531h16v48h-16zm0 0" fill="#d1d3d4"/><path d="m312 321.394531h16v48h-16zm0 0" fill="#d1d3d4"/><path d="m416 177.394531h-48l-16-16h48zm0 0" fill="#ff5023"/><path d="m96 394.195312c18.625 3.800782 32.003906 20.1875 32 39.199219h-120c0-13.253906 10.746094-24 24-24 3.671875.023438 7.285156.898438 10.558594 2.558594-1.660156-3.273437-2.535156-6.886719-2.558594-10.558594-.035156-11.707031 8.40625-21.722656 19.953125-23.667969 11.546875-1.945312 22.804687 4.753907 26.605469 15.828126.480468 0 .960937-.160157 1.441406-.160157 2.6875-.019531 5.371094.25 8 .800781zm0 0" fill="#00ccb3"/><path d="m240 33.394531h208c8.835938 0 16 7.164063 16 16v96c0 8.835938-7.164062 16-16 16h-208c-8.835938 0-16-7.164062-16-16v-96c0-8.835937 7.164062-16 16-16zm0 0" fill="#ffa733"/><path d="m120 321.394531h48v8h-48zm0 0" fill="#d1d3d4"/><path d="m312 321.394531h48v8h-48zm0 0" fill="#d1d3d4"/><path d="m192 305.394531h96v16h-96zm0 0" fill="#754c29"/><path d="m168 313.394531h-48c-4.417969 0-8 3.582031-8 8v48c0 4.417969 3.582031 8 8 8h48c4.417969 0 8-3.582031 8-8v-48c0-4.417969-3.582031-8-8-8zm-8 48h-32v-32h32zm0 0"/><path d="m280 225.394531h-80c-8.835938 0-16 7.164063-16 16v32c0 8.835938 7.164062 16 16 16h80c8.835938 0 16-7.164062 16-16v-32c0-8.835937-7.164062-16-16-16zm0 24h-32v-8h32zm-48-8v8h-32v-8zm-32 24h32v8h-32zm48 8v-8h32v8zm0 0"/><path d="m439.304688 385.945312c-1.992188-10.519531-8.117188-19.804687-17.011719-25.769531-8.890625-5.96875-19.800781-8.121093-30.292969-5.980469v-141.488281l14.34375 14.34375c9.75 9.75 25.5625 9.75 35.3125 0s9.75-25.5625 0-35.3125l-22.34375-22.34375h28.6875c13.253906 0 24-10.746093 24-24v-96c0-13.253906-10.746094-24-24-24h-172.6875l-18.402344-18.398437c-9.363281-9.328125-24.503906-9.328125-33.871094 0l-184.695312 184.742187c-9.75 9.75-9.75 25.5625 0 35.3125s25.5625 9.75 35.3125 0l14.34375-14.34375v167.742188c-8.710938-10.105469-22.800781-13.714844-35.296875-9.039063-12.5 4.671875-20.761719 16.640625-20.703125 29.984375-17.671875 0-32 14.328125-32 32 0 4.417969 3.582031 8 8 8h464c4.417969 0 8-3.582031 8-8-.03125-23.679687-17.296875-43.8125-40.695312-47.449219zm-71.367188-16.222656c0-.113281.0625-.207031.0625-.328125v-48c0-4.417969-3.582031-8-8-8h-48c-4.417969 0-8 3.582031-8 8v48c0 4.417969 3.582031 8 8 8h48c1.457031-.035156 2.875-.484375 4.089844-1.289062-2.660156 5.378906-4.058594 11.292969-4.089844 17.289062v.800781c-15.683594 3.234376-27.925781 15.507813-31.121094 31.199219h-32.878906v-120c0-4.417969-3.582031-8-8-8h-96c-4.417969 0-8 3.582031-8 8v120h-48.710938c-2.933593-17.152343-14.898437-31.382812-31.289062-37.214843v-186.785157h272v160.207031c-3.0625 2.308594-5.777344 5.042969-8.0625 8.121094zm-15.9375-40.328125v32h-32v-32zm78.34375-126.34375c3.496094 3.507813 3.496094 9.183594 0 12.6875-3.511719 3.488281-9.175781 3.488281-12.6875 0l-46.34375-46.34375h25.375zm25.65625-153.65625v96c0 4.417969-3.582031 8-8 8h-208c-4.417969 0-8-3.582031-8-8v-96c0-4.417969 3.582031-8 8-8h208c4.417969 0 8 3.582031 8 8zm-393.65625 166.34375c-3.507812 3.496094-9.179688 3.496094-12.6875 0-3.488281-3.507812-3.488281-9.175781 0-12.6875l184.742188-184.71875c3.117187-3.082031 8.132812-3.082031 11.25 0l7.0625 7.0625h-12.710938c-13.253906 0-24 10.746094-24 24v12.6875zm153.65625-131.03125v60.6875c0 13.253907 10.746094 24 24 24h108.6875l16 16h-249.375zm-197.847656 340.6875c4.210937-7.253906 13.328125-10.003906 20.847656-6.289062 3.074219 1.511719 6.769531.898437 9.191406-1.523438 2.421875-2.425781 3.027344-6.121093 1.511719-9.195312-1.097656-2.167969-1.679687-4.5625-1.703125-6.992188-.035156-7.804687 5.589844-14.488281 13.289062-15.785156 7.699219-1.296875 15.203126 3.175781 17.726563 10.5625 1.054687 3.378906 4.285156 5.59375 7.816406 5.359375.394531.003906.785157-.042969 1.167969-.136719 14.585938.019531 27.324219 9.882813 30.992188 24zm181.847656 0v-112h80v112zm145.367188 0c3.28125-9.457031 12.128906-15.851562 22.136718-16 .273438.039063 1.070313.128907 1.34375.136719 2.546875.164062 5.007813-.957031 6.558594-2.984375 1.589844-1.980469 2.144531-4.59375 1.496094-7.046875-.5625-1.988281-.867188-4.039062-.902344-6.105469 0-13.253906 10.746094-24 24-24s24 10.746094 24 24c0 4.417969 3.582031 8 8 8 14.585938.019531 27.324219 9.882813 30.992188 24zm0 0"/><path d="m224 337.394531h-16v16h8v16h-8v16h16c4.417969 0 8-3.582031 8-8v-32c0-4.417969-3.582031-8-8-8zm0 0"/><path d="m256 137.394531h24c9.484375.042969 18.097656-5.53125 21.945312-14.199219 3.847657-8.667968 2.207032-18.792968-4.183593-25.800781 6.390625-7.007812 8.03125-17.132812 4.183593-25.800781-3.847656-8.667969-12.460937-14.242188-21.945312-14.199219h-24c-4.417969 0-8 3.582031-8 8v64c0 4.417969 3.582031 8 8 8zm24-16h-16v-16h16c4.417969 0 8 3.582031 8 8s-3.582031 8-8 8zm-16-48h16c4.417969 0 8 3.582031 8 8s-3.582031 8-8 8h-16zm0 0"/><path d="m336 137.394531h8c13.253906 0 24-10.746093 24-24v-56h-16v56c0 4.417969-3.582031 8-8 8h-8c-4.417969 0-8-3.582031-8-8v-56h-16v56c0 13.253907 10.746094 24 24 24zm0 0"/><path d="m400 137.394531h16v-37.785156l22.855469-38.09375-13.710938-8.242187-17.144531 28.578124-17.144531-28.578124-13.710938 8.242187 22.855469 38.09375zm0 0"/></svg>