<svg id="regular" enable-background="new 0 0 24 24" height="512" viewBox="0 0 24 24" width="512" xmlns="http://www.w3.org/2000/svg"><circle cx="4" cy="17" fill="#2196f3" r="2"/><circle cx="20" cy="17" fill="#4caf50" r="2"/><path d="m5.25 20.75h-2.5c-1.105 0-2 .895-2 2v1.25h6.5v-1.25c0-1.105-.895-2-2-2z" fill="#2196f3"/><path d="m21.25 20.75h-2.5c-1.105 0-2 .895-2 2v1.25h6.5v-1.25c0-1.105-.895-2-2-2z" fill="#4caf50"/><path d="m.75 2.75v5.5c0 1.1.9 2 2 2h2v3l3.25-3h3.25c1.1 0 2-.9 2-2v-5.5c0-1.1-.9-2-2-2h-8.5c-1.1 0-2 .9-2 2z" fill="#ffc107"/><path d="m21.25.75h-8.5c-1.1 0-2 .9-2 2v5.5c0 1.1.9 2 2 2h3.25l3.25 3v-3h2c1.1 0 2-.9 2-2v-5.5c0-1.1-.9-2-2-2z" fill="#2196f3"/><path d="m17.25 6.25h-8.5c-.414 0-.75-.336-.75-.75s.336-.75.75-.75h8.5c.414 0 .75.336.75.75s-.336.75-.75.75z"/><path d="m6.25 6.25h-.5c-.414 0-.75-.336-.75-.75s.336-.75.75-.75h.5c.414 0 .75.336.75.75s-.336.75-.75.75z"/><path d="m15.75 8c-.176 0-.352-.061-.494-.186-.312-.272-.343-.747-.07-1.058l1.098-1.256-1.099-1.256c-.272-.312-.241-.786.07-1.058.312-.273.785-.241 1.059.071l1.53 1.75c.247.283.247.705 0 .987l-1.53 1.75c-.148.169-.355.256-.564.256z"/><path d="m4.75 14c-.102 0-.204-.021-.301-.063-.272-.12-.449-.389-.449-.687v-2.25h-1.25c-1.517 0-2.75-1.233-2.75-2.75v-5.5c0-1.517 1.233-2.75 2.75-2.75h5.16c.414 0 .75.336.75.75s-.336.75-.75.75h-5.16c-.689 0-1.25.561-1.25 1.25v5.5c0 .689.561 1.25 1.25 1.25h2c.414 0 .75.336.75.75v1.287l1.991-1.838c.139-.128.321-.199.509-.199h.16c.414 0 .75.336.75.75 0 .363-.258.666-.601.735l-3.051 2.816c-.141.131-.323.199-.508.199z"/><path d="m19.25 14c-.185 0-.367-.068-.509-.199l-3.034-2.801h-2.957c-1.517 0-2.75-1.233-2.75-2.75 0-.414.336-.75.75-.75s.75.336.75.75c0 .689.561 1.25 1.25 1.25h3.25c.188 0 .37.071.509.199l1.991 1.838v-1.287c0-.414.336-.75.75-.75h2c.689 0 1.25-.561 1.25-1.25v-5.5c0-.689-.561-1.25-1.25-1.25h-8.5c-.689 0-1.25.561-1.25 1.25 0 .414-.336.75-.75.75s-.75-.336-.75-.75c0-1.517 1.233-2.75 2.75-2.75h8.5c1.517 0 2.75 1.233 2.75 2.75v5.5c0 1.517-1.233 2.75-2.75 2.75h-1.25v2.25c0 .298-.177.567-.449.687-.097.042-.199.063-.301.063z"/><path d="m4 19c-1.103 0-2-.897-2-2s.897-2 2-2 2 .897 2 2-.897 2-2 2zm0-2.5c-.275 0-.5.224-.5.5s.225.5.5.5.5-.224.5-.5-.225-.5-.5-.5z"/><path d="m7.25 24c-.414 0-.75-.336-.75-.75v-.5c0-.689-.561-1.25-1.25-1.25h-2.5c-.689 0-1.25.561-1.25 1.25v.5c0 .414-.336.75-.75.75s-.75-.336-.75-.75v-.5c0-1.517 1.233-2.75 2.75-2.75h2.5c1.517 0 2.75 1.233 2.75 2.75v.5c0 .414-.336.75-.75.75z"/><path d="m20 19c-1.103 0-2-.897-2-2s.897-2 2-2 2 .897 2 2-.897 2-2 2zm0-2.5c-.275 0-.5.224-.5.5s.225.5.5.5.5-.224.5-.5-.225-.5-.5-.5z"/><path d="m23.25 24c-.414 0-.75-.336-.75-.75v-.5c0-.689-.561-1.25-1.25-1.25h-2.5c-.689 0-1.25.561-1.25 1.25v.5c0 .414-.336.75-.75.75s-.75-.336-.75-.75v-.5c0-1.517 1.233-2.75 2.75-2.75h2.5c1.517 0 2.75 1.233 2.75 2.75v.5c0 .414-.336.75-.75.75z"/></svg>