<svg height="512" viewBox="0 0 60 60" width="512" xmlns="http://www.w3.org/2000/svg"><g id="Page-1" fill="none" fill-rule="evenodd"><g id="035---Mansion" fill-rule="nonzero"><path id="Rectangle-path" d="m5 26h50v22h-50z" fill="#ff9801"/><path id="Rectangle-path" d="m52 26h3v22h-3z" fill="#f57c00"/><path id="Rectangle-path" d="m5 44h50v4h-50z" fill="#ff5722"/><path id="Rectangle-path" d="m52 44h3v4h-3z" fill="#d84315"/><path id="Shape" d="m55.17 26h-50.61c-.34164854.0008464-.66008563-.1727873-.84442552-.4604386-.18433989-.2876512-.20906836-.6495066-.06557448-.9595614l5.08-11c.16710795-.3517577.52057757-.577046.91-.58h23.68l6.84-10.68c.1811653-.28941541.4985587-.46518539.84-.46518539s.6588347.17576998.84.46518539l14.18 22.14c.1982745.3090101.2112698.7018236.0338521 1.0232625-.1774176.321439-.5167137.5198059-.8838521.5167375z" fill="#ff5722"/><path id="Shape" d="m56.02 24.46-14.18-22.14c-.1811653-.28941541-.4985587-.46518539-.84-.46518539s-.6588347.17576998-.84.46518539l-.66 1.03 13.52 21.11c.1982745.3090101.2112698.7018236.0338521 1.0232625-.1774176.321439-.5167137.5198059-.8838521.5167375h3c.3671384.0030684.7064345-.1952985.8838521-.5167375.1774177-.3214389.1644224-.7142524-.0338521-1.0232625z" fill="#d84315"/><rect id="Rectangle-path" fill="#02a9f4" height="5" rx="1" width="7" x="11" y="39"/><rect id="Rectangle-path" fill="#02a9f4" height="5" rx="1" width="7" x="11" y="30"/><rect id="Rectangle-path" fill="#02a9f4" height="5" rx="1" width="7" x="42" y="39"/><rect id="Rectangle-path" fill="#02a9f4" height="5" rx="1" width="7" x="42" y="30"/><path id="Shape" d="m30 36c2.7614237 0 5 2.2385763 5 5v7h-10v-7c0-2.7614237 2.2385763-5 5-5z" fill="#a0522d"/><path id="Shape" d="m30 36c-.5100781.007121-1.0160138.0927928-1.5.254 2.0776147.648336 3.4944634 2.5695828 3.5 4.746v7h3v-7c0-2.7614237-2.2385763-5-5-5z" fill="#783e22"/><circle id="Oval" cx="41" cy="17" fill="#02a9f4" r="5"/><path id="Shape" d="m1 48h58v10c0 .5522847-.4477153 1-1 1h-56c-.55228475 0-1-.4477153-1-1z" fill="#60a917"/><path id="Shape" d="m56 48v11h2c.5522847 0 1-.4477153 1-1v-10z" fill="#549414"/><path id="Shape" d="m16.3 58.588 7.7-10.588h-4l-9.293 9.293c-.2859079.2859943-.3714219.7160366-.216678 1.0896546.1547439.3736179.5192821.6172591.923678.6173454h4.077c.3200605.0000445.6208045-.1531156.809-.412z" fill="#fec108"/><path id="Shape" d="m43.7 58.588-7.7-10.588h4l9.293 9.293c.2859079.2859943.3714219.7160366.216678 1.0896546-.1547439.3736179-.5192821.6172591-.923678.6173454h-4.077c-.3200605.0000445-.6208045-.1531156-.809-.412z" fill="#fec108"/><path id="Shape" d="m24 48h12l8 11h-28z" fill="#dfc49c"/><path id="Shape" d="m10.319 20.686c-.1444276.0006715-.2872006-.0307522-.418-.092-.24081888-.1111231-.42762992-.3133613-.51933556-.562223s-.08079359-.5239609.03033556-.764777l1.24-2.686c.1634432-.3541865.5179209-.5810054.908-.581h5.44c.5522847 0 1 .4477153 1 1s-.4477153 1-1 1h-4.8l-.971 2.105c-.1637458.3548445-.5191974.5817866-.91.581z" fill="#f5f5f5"/><circle id="Oval" cx="21" cy="17" fill="#f5f5f5" r="1"/><g fill="#000"><path id="Shape" d="m17 38h-5c-1.1045695 0-2 .8954305-2 2v3c0 1.1045695.8954305 2 2 2h5c1.1045695 0 2-.8954305 2-2v-3c0-1.1045695-.8954305-2-2-2zm-5 5v-3h5v3z"/><path id="Shape" d="m17 29h-5c-1.1045695 0-2 .8954305-2 2v3c0 1.1045695.8954305 2 2 2h5c1.1045695 0 2-.8954305 2-2v-3c0-1.1045695-.8954305-2-2-2zm-5 5v-3h5v3z"/><path id="Shape" d="m48 38h-5c-1.1045695 0-2 .8954305-2 2v3c0 1.1045695.8954305 2 2 2h5c1.1045695 0 2-.8954305 2-2v-3c0-1.1045695-.8954305-2-2-2zm-5 5v-3h5v3z"/><path id="Shape" d="m48 29h-5c-1.1045695 0-2 .8954305-2 2v3c0 1.1045695.8954305 2 2 2h5c1.1045695 0 2-.8954305 2-2v-3c0-1.1045695-.8954305-2-2-2zm-5 5v-3h5v3z"/><path id="Shape" d="m41 23c3.3137085 0 6-2.6862915 6-6s-2.6862915-6-6-6-6 2.6862915-6 6c.0033074 3.3123376 2.6876624 5.9966926 6 6zm-3.858-5h2.858v2.858c-1.3993145-.3658904-2.4921096-1.4586855-2.858-2.858zm4.858 2.858v-2.858h2.858c-.3658904 1.3993145-1.4586855 2.4921096-2.858 2.858zm2.858-4.858h-2.858v-2.858c1.3993145.3658904 2.4921096 1.4586855 2.858 2.858zm-4.858-2.858v2.858h-2.858c.3658904-1.3993145 1.4586855-2.4921096 2.858-2.858z"/><path id="Shape" d="m59 47h-3v-20.2c.5301316-.2327697.9309467-.6870662 1.0958488-1.2420694.164902-.5550032.0771755-1.1544547-.2398488-1.6389306l-14.172-22.143c-.3676234-.57436137-1.0025631-.92182573-1.6845-.92182573s-1.3168766.34746436-1.6845.92182573l-6.542 10.224h-23.133c-.77979386.001233-1.48813711.454479-1.816 1.162l-5.077 11c-.24538813.5268636-.24792449 1.134726-.0069416 1.663619.24098288.528893.70134741.925841 1.2599416 1.086381v20.088h-3c-.55228475 0-1 .4477153-1 1s.44771525 1 1 1h16.586l-7.586 7.586c-.57181583.5719885-.74284381 1.4320732-.43335596 2.1793091.30948786.7472359 1.03856416 1.2345182 1.84735596 1.2346909h4.077c.6393163-.0011326 1.2398452-.3067822 1.617-.823l7.401-10.177h10.982l7.4 10.176c.3763911.5177688.9778791.824089 1.618.824h4.077c.8087918-.0001727 1.5378681-.487455 1.847356-1.2346909.3094878-.7472359.1384598-1.6073206-.433356-2.1793091l-7.586-7.586h16.586c.5522847 0 1-.4477153 1-1s-.4477153-1-1-1zm-49.36-33h21.853l-3.449 5.388c-.1925662.3009963-.209925.6818611-.0455377.9991264s.4855465.522731.8425.539c.3569535.0162691.6954715-.1591301.8880377-.4601264l11.271-17.611 14.173 22.145h-50.61zm5.851 44h-4.077l9-9h1.622zm10.509-11v-6c0-2.209139 1.790861-4 4-4s4 1.790861 4 4v6zm22.586 11h-4.077l-6.545-9h1.622zm-8.586-11h-4v-2h2c.5522847 0 1-.4477153 1-1s-.4477153-1-1-1h-2v-2c0-3.3137085-2.6862915-6-6-6s-6 2.6862915-6 6v2h-2c-.5522847 0-1 .4477153-1 1s.4477153 1 1 1h2v2h-18v-2h1c.55228475 0 1-.4477153 1-1s-.44771525-1-1-1h-1v-16h48v16h-1c-.5522847 0-1 .4477153-1 1s.4477153 1 1 1h1v2z"/><path id="Shape" d="m33 31h-6c-.5522847 0-1 .4477153-1 1s.4477153 1 1 1h6c.5522847 0 1-.4477153 1-1s-.4477153-1-1-1z"/><circle id="Oval" cx="30" cy="43" r="1"/></g></g></g></svg>