<svg height="478pt" viewBox="-25 0 478 478.48265" width="478pt" xmlns="http://www.w3.org/2000/svg"><path d="m160.242188 80h128v88h-128zm0 0" fill="#ffc477"/><path d="m208.242188 120h32v48h-32zm0 0" fill="#8b5e3c"/><path d="m312.242188 80h-176l88-72zm0 0" fill="#ff6243"/><path d="m165.359375 219.679688-90.558594 90.558593-45.199219-45.28125 90.480469-90.476562zm0 0" fill="#3d9ae2"/><path d="m419.921875 293.277344-45.28125 45.203125-11.359375-11.28125-79.121094-79.199219-11.359375-11.28125 45.28125-45.28125zm0 0" fill="#3d9ae2"/><path d="m80.480469 304.554688 79.203125-79.203126 22.636718 22.640626-79.199218 79.203124zm0 0" fill="#e6e7e8"/><path d="m261.527344 270.613281 22.636718-22.609375 79.136719 79.21875-22.632812 22.609375zm0 0" fill="#e6e7e8"/><path d="m261.519531 270.640625 79.203125 79.199219-11.761718 11.757812c-6.21875-3.839844-14.269532-2.839844-19.359376 2.402344-3.019531 2.976562-4.71875 7.039062-4.71875 11.277344 0 4.242187 1.699219 8.304687 4.71875 11.28125-4.585937-4.558594-11.460937-5.910156-17.429687-3.421875-5.96875 2.484375-9.855469 8.316406-9.851563 14.78125-.015624 4.230469 1.652344 8.289062 4.640626 11.28125-6.25-6.253907-16.386719-6.253907-22.640626 0-6.25 6.25-6.25 16.386719 0 22.640625-5.6875-5.75-14.769531-6.347656-21.164062-1.398438-6.394531 4.949219-8.089844 13.890625-3.953125 20.835938l-6 6c-6.253906 6.253906-16.390625 6.253906-22.640625 0-6.253906-6.25-6.253906-16.386719 0-22.636719-2.984375 3.007813-7.042969 4.707031-11.28125 4.71875-4.257812-.027344-8.335938-1.71875-11.359375-4.71875-2.996094-2.992187-4.679687-7.050781-4.679687-11.28125 0-4.234375 1.683593-8.292969 4.679687-11.28125-6.332031 5.71875-16.035156 5.460937-22.058594-.582031-6.019531-6.042969-6.242187-15.746094-.503906-22.058594-3.027344 2.980469-7.109375 4.648438-11.359375 4.640625-4.226562.019531-8.289062-1.652344-11.277344-4.640625-3.003906-3-4.695312-7.070312-4.695312-11.320312 0-4.246094 1.691406-8.316407 4.695312-11.320313l22.636719-22.636719 33.203125-33.28125c9.652344 1.105469 19.285156-2.253906 26.160156-9.121094l33.917969 33.921876c6.253906 6.25 16.390625 6.25 22.640625 0 6.25-6.253907 6.25-16.390626 0-22.640626l-38.640625-38.640624zm0 0" fill="#ffc477"/><g fill="#ffdaaa"><path d="m275.601562 443.199219c3.019532 2.976562 4.71875 7.039062 4.71875 11.28125 0 4.238281-1.699218 8.300781-4.71875 11.277343-2.988281 2.996094-7.046874 4.679688-11.28125 4.679688-4.230468 0-8.289062-1.683594-11.277343-4.679688l-11.363281-11.277343c-.960938-.957031-1.792969-2.03125-2.476563-3.203125-1.421875-2.453125-2.167969-5.242188-2.160156-8.078125-.007813-6.464844 3.878906-12.296875 9.847656-14.785157 5.96875-2.484374 12.84375-1.132812 17.429687 3.425782zm0 0"/><path d="m298.242188 420.558594c3.007812 2.984375 4.707031 7.042968 4.71875 11.28125-.023438 4.257812-1.71875 8.335937-4.71875 11.359375-3.003907 3.003906-7.074219 4.691406-11.320313 4.691406s-8.320313-1.6875-11.320313-4.691406l-11.28125-11.359375c-6.25-6.253906-6.25-16.390625 0-22.640625 6.253907-6.253907 16.390626-6.253907 22.640626 0zm0 0"/><path d="m320.882812 397.917969c6.25 6.253906 6.25 16.390625 0 22.640625-6.253906 6.253906-16.390624 6.253906-22.640624 0l-11.28125-11.359375c-2.988282-2.992188-4.65625-7.050781-4.640626-11.28125-.003906-6.464844 3.882813-12.296875 9.851563-14.78125 5.96875-2.488281 12.84375-1.136719 17.429687 3.421875zm0 0"/><path d="m343.519531 375.277344c6.253907 6.253906 6.253907 16.390625 0 22.640625-6.25 6.253906-16.386719 6.253906-22.636719 0l-11.28125-11.359375c-3.019531-2.976563-4.71875-7.039063-4.71875-11.28125 0-4.238282 1.699219-8.300782 4.71875-11.277344 5.089844-5.242188 13.140626-6.242188 19.359376-2.402344 1.226562.601563 2.339843 1.414063 3.28125 2.402344zm0 0"/><path d="m198.5625 310.878906-33.203125 33.28125-22.636719 22.636719-39.601562-39.597656 79.199218-79.199219h33.921876l65.039062 65.039062c6.25 6.25 6.25 16.386719 0 22.640626-6.25 6.25-16.386719 6.25-22.640625 0l-33.917969-33.921876c-6.875 6.867188-16.507812 10.226563-26.160156 9.121094zm0 0"/></g><path d="m160.242188 80h128v16h-128zm0 0" fill="#ffb655"/><path d="m425.546875 287.597656-101.824219-101.824218c-3.175781-3-8.140625-3-11.3125 0l-45.257812 45.257812c-3.121094 3.125-3.121094 8.1875 0 11.3125l5.65625 5.65625-15.269532 15.269531-12.265624 2.449219-23.375-23.375c-1.5-1.5-3.535157-2.34375-5.65625-2.34375h-30.625l-14.632813-14.632812c3.125-3.125 3.125-8.1875 0-11.3125l-45.246094-45.257813c-1.5-1.5-3.539062-2.34375-5.660156-2.34375-2.125 0-4.160156.84375-5.660156 2.34375l-90.511719 90.515625c-3.125 3.121094-3.125 8.1875 0 11.308594l45.253906 45.257812c3.125 3.121094 8.1875 3.121094 11.3125 0l52 51.953125c-3.496094 7.203125-3.136718 15.683594.960938 22.5625 4.097656 6.878907 11.382812 11.234375 19.382812 11.589844.511719 12.273437 10.34375 22.105469 22.617188 22.613281.515625 12.285156 10.355468 22.125 22.640625 22.640625.507812 9.425781 6.503906 17.675781 15.3125 21.066407 8.808593 3.390624 18.789062 1.292968 25.488281-5.363282l8.503906 8.496094c6.675782 6.714844 16.6875 8.851562 25.523438 5.449219 8.839844-3.40625 14.828125-11.707031 15.273437-21.167969 12.28125-.507812 22.125-10.34375 22.640625-22.625 12.273438-.519531 22.105469-10.355469 22.617188-22.632812 9.441406-.476563 17.71875-6.46875 21.117187-15.289063 3.402344-8.820313 1.289063-18.816406-5.390625-25.507813l-8.460937-8.472656 5.660156-5.65625s0-.082031.074219-.121094l16.871094-16.863281 5.65625 5.65625c3.125 3.121094 8.1875 3.121094 11.3125 0l45.257812-45.257812c3.121094-3.121094 3.121094-8.1875 0-11.308594zm-149.90625 31.113282c3.125 3.125 3.125 8.1875 0 11.3125-3.164063 3.023437-8.148437 3.023437-11.3125 0l-33.941406-33.945313c-3.175781-3-8.140625-3-11.3125 0-9.496094 9.078125-24.457031 9.078125-33.953125 0l-11.28125 11.3125c2.917968 2.84375 6.257812 5.21875 9.898437 7.046875l-41 41.042969-28.320312-28.28125 71.199219-71.199219h27.3125zm-200.800781-19.800782-33.964844-33.945312 79.199219-79.199219 33.941406 33.9375zm84.859375-62.230468 11.292969 11.320312-67.894532 67.878906-11.3125-11.3125zm62.140625 217.238281c-3.203125.011719-6.101563-1.902344-7.347656-4.851563-1.246094-2.953125-.597657-6.363281 1.644531-8.652344l.105469-.078124 15.0625-15.074219 7.542968-7.519531-11.292968-11.34375-5.402344 5.398437-17.285156 17.226563-.066407.085937c-3.167969 2.941406-8.078125 2.90625-11.199219-.085937-3.125-3.125-3.125-8.1875 0-11.3125l22.640626-22.632813-11.3125-11.3125-22.625 22.632813c-3.125 3.125-8.1875 3.128906-11.316407.003906-3.125-3.125-3.125-8.191406-.003906-11.316406l22.632813-22.632813-11.3125-11.308594-22.632813 22.628907c-3.164063 3.023437-8.144531 3.023437-11.3125 0-1.5-1.5-2.34375-3.535157-2.34375-5.660157 0-2.121093.84375-4.15625 2.34375-5.660156l16.96875-16.964844 36.34375-36.425781c.136719 0 .273437.039062.410156.039062 7.847657.023438 15.523438-2.277343 22.0625-6.613281l28.898438 28.847657c9.496093 9.066406 24.445312 9.066406 33.941406 0 9.371094-9.375 9.371094-24.566407 0-33.9375l-28.078125-28.078126 70.519531 70.519532-2.351562 2.351562c-6.96875-1.925781-14.4375-.570312-20.28125 3.683594-5.847657 4.253906-9.4375 10.941406-9.75 18.164062-12.363281.523438-22.234375 10.476563-22.65625 22.839844-12.273438.3125-22.175781 10.132813-22.59375 22.398438-7.214844.3125-13.894531 3.890625-18.148438 9.726562-4.257812 5.832032-5.625 13.285156-3.714843 20.25l-2.398438 2.402344c-1.515625 1.484375-3.566406 2.300781-5.691406 2.261719zm48.144531 6.21875c-3.160156 3.03125-8.152344 3.03125-11.3125 0l-11.320313-11.339844c-2.796874-3.164063-2.648437-7.960937.335938-10.949219 2.988281-2.992187 7.785156-3.140625 10.953125-.34375l11.34375 11.292969c1.507813 1.503906 2.355469 3.542969 2.355469 5.667969 0 2.128906-.847656 4.167968-2.355469 5.671875zm22.625-22.632813c-3.125 3.121094-8.1875 3.121094-11.3125 0l-11.3125-11.3125c-1.5-1.5-2.34375-3.539062-2.34375-5.660156 0-2.125.84375-4.160156 2.34375-5.660156 3.125-3.125 8.1875-3.125 11.3125 0l11.3125 11.320312c3.121094 3.125 3.121094 8.1875 0 11.3125zm22.625-22.625c-3.167969 3.015625-8.144531 3.015625-11.3125 0l-11.3125-11.320312c-3.03125-3.140625-2.988281-8.128906.097656-11.214844 3.085938-3.085938 8.074219-3.128906 11.214844-.097656l11.3125 11.3125c1.5 1.5 2.34375 3.535156 2.34375 5.660156s-.84375 4.160156-2.34375 5.660156zm22.605469-22.632812c-1.5 1.503906-3.535156 2.347656-5.660156 2.347656-2.121094 0-4.15625-.84375-5.660157-2.347656l-11.308593-11.3125c-3.132813-3.132813-3.128907-8.207032.003906-11.339844 3.132812-3.128906 8.207031-3.128906 11.339844.003906l11.285156 11.335938c3.125 3.125 3.125 8.1875 0 11.3125zm2.832031-53.742188-67.878906-67.882812 11.304687-11.308594 67.910156 67.886719zm33.96875-11.304687-90.519531-90.511719 33.945312-33.945312 90.511719 90.511718zm0 0"/><path d="m136.242188 88h16v80c0 4.417969 3.582031 8 8 8h128c4.417968 0 8-3.582031 8-8v-80h16c3.378906 0 6.394531-2.128906 7.53125-5.3125 1.136718-3.183594.148437-6.738281-2.46875-8.878906l-88-72c-2.945313-2.410156-7.179688-2.410156-10.128907 0l-88 72c-2.617187 2.140625-3.605469 5.695312-2.46875 8.878906s4.152344 5.3125 7.535157 5.3125zm80 72v-32h16v32zm64 0h-32v-40c0-4.417969-3.582032-8-8-8h-32c-4.417969 0-8 3.582031-8 8v40h-32v-72h112zm-56-141.664062 65.597656 53.664062h-131.199219zm0 0"/><path d="m72.242188 80h16v-16h16v-16h-16v-16h-16v16h-16v16h16zm0 0"/><path d="m360.242188 144v16h16v16h16v-16h16v-16h-16v-16h-16v16zm0 0"/><path d="m328.242188 56h16v-16h16v-16h-16v-16h-16v16h-16v16h16zm0 0"/><path d="m32.242188 176v-16h16v-16h-16v-16h-16v16h-16v16h16v16zm0 0"/></svg>