<svg id="Capa_1" enable-background="new 0 0 512 512" height="512" viewBox="0 0 512 512" width="512" xmlns="http://www.w3.org/2000/svg"><path d="m210.378 88.114h-24.271c-1.977-11.032-11.615-19.406-23.216-19.406-4.38 0-8.477 1.198-11.992 3.277-5.064-8.693-14.479-14.54-25.264-14.54-4.402 0-8.572.979-12.316 2.722-6.277-7.774-15.88-12.75-26.649-12.75-18.91 0-34.24 15.33-34.24 34.24 0 .468.009.939.028 1.412.638 16.203 14.35 28.83 30.566 28.83h64.322 32.107 31.319c6.642 0 12.012-5.445 11.89-12.115-.119-6.548-5.736-11.67-12.284-11.67z" fill="#26a6fe"/><path d="m210.378 88.114h-24.271c-1.977-11.032-11.615-19.406-23.216-19.406-4.38 0-8.477 1.198-11.992 3.277-5.064-8.693-14.479-14.54-25.264-14.54-4.402 0-8.572.979-12.316 2.722-6.277-7.774-15.88-12.75-26.649-12.75-14.298 0-26.544 8.767-31.669 21.217 4.015-1.653 8.411-2.571 13.023-2.571 7.155 0 13.796 2.197 19.288 5.951 4.884 3.339 10.76 4.843 16.645 4.233.997-.103 2.008-.156 3.032-.156 6.942 0 13.316 2.422 18.327 6.466 4.715 3.805 10.731 5.446 16.764 4.896.713-.065 1.435-.098 2.165-.098 7.872 0 14.84 3.856 19.124 9.782 4.464 6.174 11.794 9.624 19.413 9.624h8.949c4.108 0 7.848 2.018 10.096 5.138h8.945c6.642 0 12.012-5.445 11.89-12.115-.119-6.548-5.736-11.67-12.284-11.67z" fill="#0593fc"/><path d="m503.537 413.116c0 49.075-21.608 49.784-48.263 49.784s-48.263-.709-48.263-49.784 21.608-126.671 48.263-126.671 48.263 77.597 48.263 126.671z" fill="#08b865"/><path d="m455.274 286.445c-5.237 0-10.278 3.006-15 8.192 19.31 21.21 33.263 79.047 33.263 118.479s-13.952 47.636-33.263 49.338c4.722.416 9.763.445 15 .445 26.655 0 48.263-.709 48.263-49.783s-21.608-126.671-48.263-126.671z" fill="#09a755"/><path d="m448.118 413.116c0 49.075-21.608 49.784-48.263 49.784s-48.263-.709-48.263-49.784 21.608-126.671 48.263-126.671 48.263 77.597 48.263 126.671z" fill="#00c27a"/><path d="m399.855 286.445c-5.237 0-10.278 3.006-15 8.192 19.31 21.21 33.263 79.047 33.263 118.479s-13.953 47.636-33.263 49.338c4.722.416 9.763.445 15 .445 26.655 0 48.263-.709 48.263-49.783s-21.608-126.671-48.263-126.671z" fill="#08b865"/><ellipse cx="102.55" cy="266.193" fill="#46cc8d" rx="92.594" ry="92.594" transform="matrix(.707 -.707 .707 .707 -158.191 150.48)"/><path d="m102.55 173.599c-5.108 0-10.117.42-15 1.216 44.004 7.169 77.595 45.348 77.595 91.379s-33.59 84.21-77.595 91.379c4.883.796 9.892 1.216 15 1.216 51.138 0 92.595-41.456 92.595-92.594 0-51.14-41.456-92.596-92.595-92.596z" fill="#00c27a"/><path d="m122.569 424.28c-4.162-.456-8.132.157-11.692 1.579-5.209-6.142-12.978-10.046-21.663-10.046-4.113 0-8.019.882-11.548 2.455-6.477-12.126-19.512-20.22-34.371-19.532-18.975.879-34.382 16.368-35.168 35.348-.512 12.356 5.053 23.429 13.943 30.5h115.808c4.219-4.685 6.639-11.022 6.165-17.925-.795-11.581-9.935-21.115-21.474-22.379z" fill="#6ed5a1"/><path d="m122.568 424.28c-4.161-.456-8.132.157-11.691 1.579-5.209-6.142-12.978-10.045-21.663-10.045-4.114 0-8.019.882-11.548 2.455-6.22-11.646-18.49-19.573-32.615-19.573-13.867 0-25.943 7.642-32.265 18.94 2.659-.608 5.422-.94 8.265-.94 11.04 0 20.946 4.842 27.717 12.518 3.22 3.65 8.085 5.422 12.914 4.819 1.157-.144 2.335-.219 3.532-.219 6.272 0 12.067 2.036 16.765 5.481 3.183 2.334 7.073 3.479 10.993 3.009.948-.113 1.913-.172 2.892-.172 12.785 0 23.251 9.901 24.166 22.453h17.848c4.219-4.685 6.64-11.023 6.165-17.926-.796-11.581-9.936-21.115-21.475-22.379z" fill="#46cc8d"/><path d="m360.827 345.628h-209.654c-6.21 0-11.245-5.035-11.245-11.245v-8.481c0-6.211 5.035-11.245 11.245-11.245h209.653c6.211 0 11.245 5.035 11.245 11.245v8.481c.001 6.211-5.034 11.245-11.244 11.245z" fill="#9b5e5e"/><path d="m360.827 376.6h-209.653c-6.21 0-11.245-5.035-11.245-11.245v-8.481c0-6.211 5.035-11.245 11.245-11.245h209.653c6.211 0 11.245 5.035 11.245 11.245v8.482c0 6.209-5.035 11.244-11.245 11.244z" fill="#704444"/><path d="m377.485 432.184h-242.97c-5.095 0-9.225-4.13-9.225-9.225v-11.083c0-5.095 4.13-9.225 9.225-9.225h242.971c5.095 0 9.225 4.13 9.225 9.225v11.083c0 5.094-4.131 9.225-9.226 9.225z" fill="#ae6c6c"/><path d="m425.831 176.048h-20.564c-4.624-7.895-13.189-13.201-22.999-13.201-1.16 0-2.294.099-3.415.243-3.49-21.806-22.381-38.47-45.171-38.47-22.714 0-41.553 16.555-45.132 38.255-14.454.299-26.085 12.087-26.085 26.613 0 .062 0 .123.001.185.062 8.988 7.57 16.154 16.558 16.154h67.393 56.862 22.551c8.223 0 14.889-6.666 14.889-14.889.001-8.224-6.665-14.89-14.888-14.89z" fill="#8ac9fe"/><path d="m425.41 176.048h-20.144c-4.624-7.895-13.189-13.201-22.999-13.201-1.16 0-2.294.099-3.415.243-3.49-21.806-22.381-38.47-45.171-38.47-17.791 0-33.202 10.158-40.768 24.988 6.233-3.184 13.288-4.988 20.768-4.988 21.628 0 39.746 15.009 44.519 35.178.436 1.842 2.139 3.052 4.032 3.049h.035c9.068 0 17.073 4.534 21.884 11.455.757 1.09 1.992 1.745 3.319 1.745h18.36c6.425 0 11.883 4.077 13.97 9.779h6.03c8.462 0 15.275-7.059 14.872-15.609-.376-8.007-7.274-14.169-15.292-14.169z" fill="#60b7ff"/><path d="m83.024 119.397h33.061c4.143 0 7.5-3.358 7.5-7.5s-3.357-7.5-7.5-7.5h-33.061c-12.252 0-22.601-9.701-23.071-21.624-.015-.375-.022-.747-.022-1.118 0-14.744 11.995-26.739 26.739-26.739 8.116 0 15.703 3.631 20.813 9.962 2.164 2.681 5.874 3.542 9.001 2.088 2.882-1.341 5.961-2.021 9.151-2.021 7.7 0 14.898 4.144 18.783 10.815 1.005 1.726 2.658 2.98 4.592 3.483s3.988.214 5.707-.803c2.469-1.46 5.295-2.232 8.174-2.232 7.801 0 14.459 5.564 15.833 13.229.642 3.575 3.751 6.177 7.383 6.177h24.27c2.552 0 4.743 1.972 4.785 4.306.022 1.191-.424 2.314-1.257 3.162-.832.848-1.945 1.315-3.134 1.315h-64.688c-4.143 0-7.5 3.358-7.5 7.5s3.357 7.5 7.5 7.5h64.688c5.247 0 10.161-2.062 13.837-5.806s5.647-8.696 5.552-13.945c-.191-10.495-9.065-19.032-19.783-19.032h-18.666c-4.661-11.543-15.936-19.406-28.82-19.406-3.225 0-6.418.502-9.462 1.475-6.911-7.982-17.063-12.738-27.794-12.738-3.499 0-6.921.485-10.225 1.445-7.716-7.348-17.926-11.474-28.74-11.474-23.015 0-41.739 18.724-41.739 41.739 0 .565.012 1.134.034 1.707.795 20.207 17.513 36.035 38.059 36.035z"/><path d="m504.5 457.084h-4.882c7.756-9.158 11.419-23.39 11.419-43.968 0-25.696-5.571-57.947-14.54-84.166-7.803-22.812-21.288-50.005-41.223-50.005-10.023 0-19.321 6.813-27.717 20.27-7.276-11.627-16.464-20.27-27.702-20.27-12.085 0-23.087 9.86-32.739 29.32-1.97-.705-4.081-1.109-6.29-1.109h-74.748c-4.143 0-7.5 3.358-7.5 7.5s3.357 7.5 7.5 7.5h74.748c2.065 0 3.745 1.68 3.745 3.745v8.481c0 2.065-1.68 3.745-3.745 3.745h-209.652c-2.065 0-3.745-1.68-3.745-3.745v-8.481c0-2.065 1.68-3.745 3.745-3.745h104.904c4.143 0 7.5-3.358 7.5-7.5s-3.357-7.5-7.5-7.5h-62.191c5.739-12.813 8.757-26.831 8.757-40.963 0-55.192-44.902-100.094-100.094-100.094s-100.095 44.902-100.095 100.094c0 52.316 40.346 95.379 91.556 99.727v42.717c-1.58-.212-3.182-.324-4.798-.324-2.847 0-5.646.33-8.371.984-8.731-11.8-23.003-18.748-37.894-18.054-22.783 1.057-41.371 19.737-42.314 42.532-.341 8.256 1.665 16.354 5.585 23.427-3.531.609-6.219 3.678-6.219 7.382 0 4.142 3.357 7.5 7.5 7.5h14.57 482.43c4.143 0 7.5-3.358 7.5-7.5s-3.357-7.5-7.5-7.5zm-352.974-10.939c-.15-2.186-.548-4.352-1.152-6.461h23.95v17.4h-23.927c.994-3.498 1.387-7.185 1.129-10.939zm162.787-62.045v11.05h-113.325v-11.05zm31.779 0c-.477 3.746-.874 7.439-1.182 11.05h-15.598v-11.05zm31.393 26.05c.951 0 1.725.774 1.725 1.725v11.083c0 .952-.774 1.725-1.725 1.725h-242.97c-.951 0-1.726-.774-1.726-1.725v-11.083c0-.951.774-1.725 1.726-1.725zm-188.161 29.534h136.652v17.4h-136.652zm151.653 0h6.003c1.976 7.46 4.927 13.125 8.562 17.4h-14.566v-17.4zm95.083-124.927c6.497-13.031 13.68-20.812 19.215-20.812 6.18 0 16.967 10.439 27.03 39.86 8.342 24.388 13.732 55.52 13.732 79.311 0 42.284-15.343 42.284-40.763 42.284-3.125 0-6.411-.005-9.656-.132 6.778-9.185 10-22.88 10-42.152 0-25.696-5.571-57.947-14.54-84.166-1.536-4.489-3.295-9.147-5.276-13.735.088-.15.178-.299.258-.458zm-36.205-20.811c6.18 0 16.967 10.439 27.03 39.86 8.342 24.388 13.732 55.52 13.732 79.311 0 42.284-15.343 42.284-40.763 42.284-20.166 0-31.681-.764-37.184-15.716h14.814c9.223 0 16.725-7.503 16.725-16.725v-11.083c0-9.222-7.503-16.725-16.725-16.725h-17.513c.328-3.615.745-7.312 1.251-11.07 10.151-.214 18.348-8.523 18.348-18.725v-8.481c0-4.221-1.42-8.108-3.783-11.245 2.364-3.137 3.783-7.024 3.783-11.245v-8.481c0-2.303-.438-4.502-1.201-6.542.191-.297.37-.605.521-.935 7.013-15.332 14.85-24.482 20.965-24.482zm-39.029 59.182c2.065 0 3.745 1.68 3.745 3.745v8.481c0 2.065-1.68 3.745-3.745 3.745h-209.652c-2.065 0-3.745-1.68-3.745-3.745v-8.481c0-2.065 1.68-3.745 3.745-3.745zm-343.37-86.935c0-46.921 38.174-85.094 85.095-85.094s85.094 38.173 85.094 85.094c0 14.084-3.51 28.035-10.15 40.343-.11.204-.206.411-.295.62h-26.025c-10.336 0-18.745 8.409-18.745 18.745v8.481c0 3.819 1.154 7.371 3.123 10.337-.281.078-.561.168-.838.281-8.221 3.359-16.844 5.361-25.702 6.022v-59.089l25.912-25.913c2.929-2.929 2.929-7.678 0-10.606-2.93-2.929-7.678-2.929-10.607 0l-15.305 15.305v-19.575c0-4.142-3.357-7.5-7.5-7.5s-7.5 3.358-7.5 7.5v45.091l-14.428-14.425c-2.93-2.929-7.678-2.93-10.607 0-2.929 2.929-2.929 7.678 0 10.607l25.034 25.035v33.408c-42.927-4.298-76.556-40.627-76.556-84.667zm91.556 99.884c7.992-.507 15.825-1.957 23.417-4.332v3.609c0 10.336 8.409 18.745 18.745 18.745h34.814v11.05h-51.474c-9.223 0-16.726 7.503-16.726 16.725v4.831c-1.6.103-3.186.314-4.749.66-1.273-1.131-2.621-2.162-4.028-3.094v-48.194zm-84.159 91.007c-6.251-5.866-9.591-14.005-9.232-22.689.626-15.096 12.935-27.468 28.023-28.166 11.521-.528 21.994 5.436 27.408 15.573 1.854 3.471 6.073 4.92 9.669 3.317 2.688-1.198 5.545-1.805 8.494-1.805 6.146 0 11.957 2.696 15.943 7.396 2.085 2.46 5.509 3.311 8.503 2.114 2.109-.842 4.319-1.234 6.587-1.181 2.879 4.712 8.01 7.892 13.894 8.022 1.401 2.279 2.24 4.873 2.42 7.507.243 3.543-.601 6.971-2.402 9.912z"/><path d="m279.023 213.327h75.014c4.143 0 7.5-3.358 7.5-7.5s-3.357-7.5-7.5-7.5h-75.014c-4.962 0-9.025-3.905-9.058-8.705 0-.022-.001-.111-.001-.133 0-10.326 8.406-18.901 18.74-19.114 3.611-.075 6.656-2.713 7.245-6.278 3.057-18.528 18.925-31.976 37.732-31.976 18.9 0 34.783 13.523 37.764 32.155.641 4 4.347 6.765 8.358 6.254.973-.124 1.755-.183 2.463-.183 6.767 0 13.099 3.637 16.527 9.491 1.346 2.298 3.809 3.71 6.472 3.71h20.564c4.074 0 7.389 3.315 7.389 7.389 0 4.075-3.314 7.39-7.389 7.39h-41.794c-4.143 0-7.5 3.358-7.5 7.5s3.357 7.5 7.5 7.5h41.794c12.345 0 22.389-10.044 22.389-22.39 0-12.345-10.044-22.389-22.389-22.389h-16.608c-5.899-7.569-14.8-12.376-24.405-13.104-6.504-22.557-27.062-38.324-51.135-38.324-24.244 0-44.981 16.057-51.299 38.922-15.574 3.161-27.419 17.069-27.419 33.446l.001.236c.091 13.015 10.884 23.603 24.059 23.603z"/></svg>