<svg id="Capa_1" enable-background="new 0 0 512 512" height="512" viewBox="0 0 512 512" width="512" xmlns="http://www.w3.org/2000/svg"><g><path d="m151 15h210v152h-210z" fill="#ff6c6c"/><path d="m256 15h105v152h-105z" fill="#e63950"/><path d="m181 15h150v152h-150z" fill="#e63950"/><path d="m256 15h75v152h-75z" fill="#ae2538"/><g><path d="m271 107v60c0 8.28-6.72 15-15 15s-15-6.72-15-15v-60c0-8.28 6.72-15 15-15s15 6.72 15 15z" fill="#575f64"/></g><path d="m271 107v60c0 8.28-6.72 15-15 15v-90c8.28 0 15 6.72 15 15z" fill="#474f54"/><g><path d="m301 107c0 8.28-6.72 15-15 15h-60c-8.28 0-15-6.72-15-15s6.72-15 15-15h60c8.28 0 15 6.72 15 15z" fill="#575f64"/></g><path d="m301 107c0 8.28-6.72 15-15 15h-30v-30h30c8.28 0 15 6.72 15 15z" fill="#474f54"/><path d="m391 437v60c0 8.28-6.72 15-15 15h-240c-8.28 0-15-6.72-15-15v-60c0-8.28 6.72-15 15-15h240c8.28 0 15 6.72 15 15z" fill="#e63950"/><path d="m391 437v60c0 8.28-6.72 15-15 15h-120v-90h120c8.28 0 15 6.72 15 15z" fill="#ae2538"/><g><path d="m376 152h-240c-24.81 0-45 20.19-45 45v225c0 24.81 20.19 45 45 45h240c24.81 0 45-20.19 45-45v-225c0-24.81-20.19-45-45-45z" fill="#ff6c6c"/></g><path d="m421 197v225c0 24.81-20.19 45-45 45h-120v-315h120c24.81 0 45 20.19 45 45z" fill="#e63950"/><path d="m294.99 294.52-26-45.02c-2.68-4.64-7.63-7.5-12.99-7.5s-10.31 2.86-12.99 7.5l-26 45.02c-3.93 6.81-6.01 14.59-6.01 22.48 0 24.81 20.19 45 45 45s45-20.19 45-45c0-7.89-2.08-15.67-6.01-22.48z" fill="#ffd396"/><path d="m301 317c0 24.81-20.19 45-45 45v-120c5.36 0 10.31 2.86 12.99 7.5l26 45.02c3.93 6.81 6.01 14.59 6.01 22.48z" fill="#ffb64c"/><g><path d="m391 15c0 8.28-6.72 15-15 15h-240c-8.28 0-15-6.72-15-15s6.72-15 15-15h240c8.28 0 15 6.72 15 15z" fill="#ff6c6c"/></g><path d="m391 15c0 8.28-6.72 15-15 15h-120v-30h120c8.28 0 15 6.72 15 15z" fill="#e63950"/></g></svg>