<svg height="512" viewBox="0 0 64 64" width="512" xmlns="http://www.w3.org/2000/svg"><g id="Filled_outline" data-name="Filled outline"><path d="m26 11v-1a3 3 0 0 1 3-3h3a2 2 0 0 0 2-2 2 2 0 0 1 2-2h2v8z" fill="#394d5c"/><path d="m26 11h12v10h-12z" fill="#ffd782"/><path d="m26 25h12v13h-12z" fill="#dd3e46"/><path d="m43 57v-11l-5-5-3 3 4 4v13h9v-2z" fill="#ffd782"/><path d="m21 57v-11l5-5 3 3-4 4v13h-9v-2z" fill="#ffd782"/><path d="m26 38v3l3 3h6l3-3v-3z" fill="#195c85"/><path d="m22 21v-8a2 2 0 0 0 -2-2 2 2 0 0 0 -2 2v10l8 8v-6z" fill="#ffd782"/><path d="m42 21v-8a2 2 0 0 1 2-2 2 2 0 0 1 2 2v10l-8 8v-6z" fill="#ffd782"/><path d="m5 7h4v8h-4z" fill="#7d8d9c"/><path d="m9 5h4v12h-4z" fill="#394d5c"/><path d="m55 7h4v8h-4z" fill="#7d8d9c" transform="matrix(-1 0 0 -1 114 22)"/><path d="m51 5h4v12h-4z" fill="#394d5c" transform="matrix(-1 0 0 -1 106 22)"/><path d="m30 25h4a0 0 0 0 1 0 0v2a2 2 0 0 1 -2 2 2 2 0 0 1 -2-2v-2a0 0 0 0 1 0 0z" fill="#ffd782"/><path d="m29 14h2v2h-2z"/><path d="m33 14h2v2h-2z"/><path d="m60 7a1 1 0 0 0 -1-1h-3v-1a1 1 0 0 0 -1-1h-4a1 1 0 0 0 -1 1v5h-11v-7a1 1 0 0 0 -1-1h-2a3 3 0 0 0 -3 3 1 1 0 0 1 -1 1h-3a4 4 0 0 0 -4 4h-11v-5a1 1 0 0 0 -1-1h-4a1 1 0 0 0 -1 1v1h-3a1 1 0 0 0 -1 1v3h-2v2h2v3a1 1 0 0 0 1 1h3v1a1 1 0 0 0 1 1h4a1 1 0 0 0 1-1v-5h3.184a2.966 2.966 0 0 0 -.184 1v10a1 1 0 0 0 .293.707l7.707 7.707v9.172l-4.707 4.707a1 1 0 0 0 -.293.707v10.323l-4.371 1.748a1 1 0 0 0 -.629.929v2a1 1 0 0 0 1 1h9a1 1 0 0 0 1-1v-12.586l3.414-3.414h5.172l3.414 3.414v12.586a1 1 0 0 0 1 1h9a1 1 0 0 0 1-1v-2a1 1 0 0 0 -.629-.929l-4.371-1.748v-10.323a1 1 0 0 0 -.293-.707l-4.707-4.707v-9.172l7.707-7.707a1 1 0 0 0 .293-.707v-10a2.966 2.966 0 0 0 -.184-1h3.184v5a1 1 0 0 0 1 1h4a1 1 0 0 0 1-1v-1h3a1 1 0 0 0 1-1v-3h2v-2h-2zm-52 7h-2v-6h2zm4 2h-2v-10h2zm17-8h3a3 3 0 0 0 3-3 1 1 0 0 1 1-1h1v6h-10a2 2 0 0 1 2-2zm-2 4h10v8h-10zm-8 10.586v-9.586a1 1 0 0 1 2 0v8a1 1 0 0 0 .293.707l3.707 3.707v3.172zm5.293 24.707a1 1 0 0 0 -.293.707v12h-7v-.323l4.371-1.748a1 1 0 0 0 .629-.929v-10.586l4-4 1.586 1.586zm5.121-4.293-2.414-2.414v-1.586h10v1.586l-2.414 2.414zm2.586-13a3 3 0 0 0 3-3v-1h2v11h-10v-11h2v1a3 3 0 0 0 3 3zm-1-3v-1h2v1a1 1 0 0 1 -2 0zm11 19.414v10.586a1 1 0 0 0 .629.929l4.371 1.748v.323h-7v-12a1 1 0 0 0 -.293-.707l-3.293-3.293 1.586-1.586zm-4.414-22.414h-11.172l-3.414-3.414v-7.586a2.966 2.966 0 0 0 -.184-1h2.184v10h14v-10h2.184a2.966 2.966 0 0 0 -.184 1v7.586zm7.414-1.414-6 6v-3.172l3.707-3.707a1 1 0 0 0 .293-.707v-8a1 1 0 0 1 2 0zm9-6.586h-2v-10h2zm4-2h-2v-6h2z"/><path d="m4.728 20.5h8.544v2.001h-8.544z" transform="matrix(.936 -.351 .351 .936 -6.982 4.535)"/><path d="m7.394 24h7.211v2h-7.211z" transform="matrix(.832 -.555 .555 .832 -12.02 10.3)"/><path d="m11.585 26.5h5.831v2h-5.831z" transform="matrix(.515 -.857 .857 .515 -16.541 25.78)"/><path d="m54 17.228h2.001v8.544h-2.001z" transform="matrix(.351 -.936 .936 .351 15.557 65.449)"/><path d="m52 21.394h2v7.211h-2z" transform="matrix(.555 -.832 .832 .555 2.8 55.231)"/><path d="m48.5 24.585h2v5.831h-2z" transform="matrix(.857 -.514 .514 .857 -7.095 29.386)"/></g></svg>