<svg height="512pt" viewBox="-6 0 512 512.00034" width="512pt" xmlns="http://www.w3.org/2000/svg"><path d="m419.851562 203.300781-4.285156-3.433593-165.214844-133.785157-165.214843 133.785157-4.285157 3.433593-2.710937 2.183594v295.753906h344.421875v-295.753906zm0 0" fill="#ffeb99"/><path d="m419.851562 203.300781-169.5-137.21875 165.214844 133.785157zm0 0" fill="#78b9eb"/><path d="m250.351562 66.082031-169.5 137.21875 4.285157-3.433593zm0 0" fill="#78b9eb"/><path d="m357.984375 97.941406-107.632813-87.183594-239.589843 193.953126 27.125 33.367187 40.253906-32.59375v-.019531l2.710937-2.164063 169.5-137.21875 169.5 137.21875 2.710938 2.164063v.019531l40.253906 32.59375 27.125-33.367187-67.378906-54.570313zm0 0" fill="#ff9478"/><path d="m422.5625 59.945312h-64.578125v37.996094l64.578125 52.199219zm0 0" fill="#ff7956"/><path d="m419.851562 203.300781 2.710938 2.183594v-.019531zm0 0" fill="#78b9eb"/><path d="m78.140625 205.464844v.019531l2.710937-2.183594zm0 0" fill="#78b9eb"/><path d="m357.984375 318.261719c0 59.445312-48.191406 107.632812-107.632813 107.632812-59.445312 0-107.632812-48.1875-107.632812-107.632812 0-59.441407 48.1875-107.628907 107.632812-107.628907 59.441407 0 107.632813 48.1875 107.632813 107.628907zm0 0" fill="#ffd422"/><g fill="#3e3d42"><path d="m131.957031 318.261719c0 65.390625 53.007813 118.394531 118.394531 118.394531 65.386719 0 118.394532-53.003906 118.394532-118.394531 0-65.386719-53.007813-118.394531-118.394532-118.394531-65.355468.078124-118.316406 53.039062-118.394531 118.394531zm215.261719 0c0 53.5-43.367188 96.871093-96.867188 96.871093s-96.867187-43.371093-96.867187-96.871093c0-53.496094 43.367187-96.867188 96.867187-96.867188 53.472657.058594 96.808594 43.394531 96.867188 96.867188zm0 0"/><path d="m250.351562 372.078125c-29.707031-.035156-53.78125-24.109375-53.816406-53.816406h-21.527344c0 41.613281 33.734376 75.34375 75.34375 75.34375 41.609376 0 75.34375-33.730469 75.34375-75.34375h-21.527343c-.035157 29.707031-24.109375 53.78125-53.816407 53.816406zm0 0"/><path d="m207.296875 275.210938h21.527344v21.527343h-21.527344zm0 0"/><path d="m271.878906 275.210938h21.527344v21.527343h-21.527344zm0 0"/><path d="m496.710938 196.347656-63.386719-51.308594v-85.09375c0-5.941406-4.816407-10.761718-10.761719-10.761718h-64.578125c-5.945313 0-10.765625 4.820312-10.765625 10.761718v15.394532l-90.097656-72.945313c-3.949219-3.191406-9.589844-3.191406-13.539063 0l-239.589843 193.953125c-4.621094 3.742188-5.335938 10.519532-1.59375 15.140625.003906.003907.007812.007813.011718.015625l27.125 33.363282c3.742188 4.605468 10.507813 5.308593 15.121094 1.574218l22.722656-18.394531v262.425781h-32.289062v21.527344h430.523437v-21.527344h-32.289062v-262.425781l22.722656 18.394531c4.609375 3.734375 11.375 3.03125 15.121094-1.574218l27.125-33.363282c3.746093-4.613281 3.046875-11.394531-1.566407-15.140625-.007812-.003906-.011718-.011719-.015624-.015625zm-127.964844-125.636718h43.050781v56.894531l-43.050781-34.84375zm43.054687 419.761718h-322.898437v-279.839844l161.449218-130.707031 161.449219 130.707031zm49.445313-267.515625-204.125-165.25c-3.949219-3.191406-9.589844-3.191406-13.539063 0l-204.125 165.25-13.539062-16.632812 224.433593-181.710938 224.433594 181.710938zm0 0"/></g></svg>