<svg height="512pt" viewBox="0 -26 512.001 512" width="512pt" xmlns="http://www.w3.org/2000/svg"><g fill-rule="evenodd"><path d="m462 130h-432c-11 0-20 9-20 20v280c0 11 9 20 20 20h452c11 0 20-9 20-20v-280c0-11-9-20-20-20zm-412 40h412v240h-412zm0 0" fill="#dca98a"/><path d="m281 35c0 13.808594-11.191406 25-25 25-13.804688 0-25-11.191406-25-25s11.195312-25 25-25c13.808594 0 25 11.191406 25 25zm0 0" fill="#858fa6"/><path d="m50 170h412v240h-412zm0 0" fill="#efc9b4"/></g><path d="m156.570312 272.128906c0-18.386718-14.960937-33.34375-33.34375-33.34375h-21.832031c-5.523437 0-10 4.476563-10 10v82.429688c0 5.523437 4.476563 10 10 10 5.519531 0 10-4.476563 10-10v-25.742188h4.96875l17.75 30.742188c1.851563 3.207031 5.210938 5 8.667969 5 1.695312 0 3.414062-.429688 4.992188-1.339844 4.78125-2.761719 6.417968-8.878906 3.660156-13.660156l-13.855469-23.996094c11.222656-5.371094 18.992187-16.839844 18.992187-30.089844zm-45.175781-13.34375h11.832031c7.355469 0 13.34375 5.988282 13.34375 13.34375 0 7.359375-5.988281 13.34375-13.34375 13.34375h-11.832031zm0 0"/><path d="m227.386719 258.785156c5.523437 0 10-4.476562 10-10 0-5.523437-4.476563-10-10-10h-45.171875c-5.523438 0-10 4.476563-10 10v82.429688c0 5.523437 4.476562 10 10 10h45.171875c5.523437 0 10-4.476563 10-10 0-5.523438-4.476563-10-10-10h-35.171875v-21.214844h17.585937c5.523438 0 10-4.476562 10-10s-4.476562-10-10-10h-17.585937v-21.214844zm0 0"/><path d="m309.527344 248.785156v49.515625l-36.867188-55.078125c-2.449218-3.65625-7.003906-5.285156-11.21875-4.003906-4.210937 1.277344-7.09375 5.164062-7.09375 9.566406v82.429688c0 5.523437 4.480469 10 10 10 5.523438 0 10-4.476563 10-10v-49.511719l36.867188 55.074219c1.890625 2.824218 5.035156 4.4375 8.3125 4.4375.964844 0 1.945312-.140625 2.90625-.433594 4.210937-1.277344 7.089844-5.164062 7.089844-9.566406v-82.429688c0-5.523437-4.476563-10-10-10-5.519532 0-9.996094 4.476563-9.996094 10zm0 0"/><path d="m420.605469 248.785156c0-5.523437-4.476563-10-10-10h-55.175781c-5.519532 0-10 4.476563-10 10 0 5.523438 4.480468 10 10 10h15.859374v72.429688c0 5.523437 4.476563 10 10 10 5.519532 0 10-4.476563 10-10v-72.429688h19.316407c5.523437 0 10-4.476562 10-10zm0 0"/><path d="m482 120h-17.535156l-174.054688-91.355469c-2.996094-16.273437-17.28125-28.644531-34.410156-28.644531s-31.414062 12.371094-34.410156 28.644531l-174.058594 91.355469h-17.53125c-16.542969 0-30 13.457031-30 30v280c0 16.542969 13.457031 30 30 30h452c16.542969 0 30-13.457031 30-30v-280c0-16.542969-13.457031-30-30-30zm-226-100c8.269531 0 15 6.730469 15 15s-6.730469 15-15 15-15-6.730469-15-15 6.730469-15 15-15zm236 410c0 5.511719-4.484375 10-10 10h-452c-5.515625 0-10-4.488281-10-10v-280c0-5.515625 4.484375-10 10-10h19.992188.015624.015626 39.976562c5.523438 0 10-4.476562 10-10 0-5.347656-4.203125-9.703125-9.480469-9.972656l133.777344-70.214844c5.589844 11.914062 17.695313 20.1875 31.703125 20.1875s26.113281-8.273438 31.703125-20.1875l133.726563 70.1875h-251.429688c-5.523438 0-10 4.476562-10 10s4.476562 10 10 10h291.976562.015626.011718 19.996094c5.511719 0 10 4.484375 10 10zm0 0"/><path d="m462 160h-412c-5.523438 0-10 4.476562-10 10v240c0 5.523438 4.476562 10 10 10h292c5.523438 0 10-4.476562 10-10s-4.476562-10-10-10h-282v-220h392v220h-30c-5.523438 0-10 4.476562-10 10s4.476562 10 10 10h40c5.523438 0 10-4.476562 10-10v-240c0-5.523438-4.476562-10-10-10zm0 0"/><path d="m130.003906 140c5.523438 0 10-4.476562 10-10s-4.476562-10-10-10h-.007812c-5.519532 0-9.996094 4.476562-9.996094 10s4.480469 10 10.003906 10zm0 0"/><path d="m382.003906 400h-.007812c-5.523438 0-9.996094 4.476562-9.996094 10s4.480469 10 10.003906 10c5.519532 0 10-4.476562 10-10s-4.480468-10-10-10zm0 0"/></svg>