<svg height="480pt" viewBox="0 -19 480 480" width="480pt" xmlns="http://www.w3.org/2000/svg"><path d="m96 193.394531v240h288v-240zm0 0" fill="#c49a6c"/><path d="m288 241.394531v16h-48v-24h40c4.417969 0 8 3.582031 8 8zm0 0" fill="#d1d3d4"/><path d="m192 257.394531h48v24h-40c-4.417969 0-8-3.582031-8-8zm0 0" fill="#d1d3d4"/><g fill="#e6e7e8"><path d="m312 321.394531h48v48h-48zm0 0"/><path d="m120 321.394531h48v48h-48zm0 0"/><path d="m288 257.394531v16c0 4.417969-3.582031 8-8 8h-40v-24zm0 0"/><path d="m200 233.394531h40v24h-48v-16c0-4.417969 3.582031-8 8-8zm0 0"/></g><path d="m192 305.394531h96v128h-96zm0 0" fill="#8b5e3c"/><path d="m472 433.394531h-136c0-17.671875 14.328125-32 32-32 .398438 0 .800781.082031 1.199219.082031-.765625-2.628906-1.171875-5.347656-1.199219-8.082031 0-17.671875 14.328125-32 32-32s32 14.328125 32 32c22.089844 0 40 17.910157 40 40zm0 0" fill="#00ccb3"/><path d="m436 221.394531c-6.632812 6.613281-17.367188 6.613281-24 0l-60-60h48l36 36c3.1875 3.179688 4.980469 7.496094 4.980469 12 0 4.503907-1.792969 8.820313-4.980469 12zm0 0" fill="#ff6243"/><path d="m240 33.394531c-8.824219.027344-15.972656 7.175781-16 16v16l-156 156c-6.628906 6.628907-17.371094 6.628907-24 0-6.628906-6.628906-6.628906-17.371093 0-24l184.71875-184.71875c2.992188-2.996093 7.050781-4.679687 11.28125-4.679687s8.289062 1.683594 11.28125 4.679687l20.71875 20.71875zm0 0" fill="#ff6243"/><path d="m384 193.394531h-288l128-128v80c.027344 8.824219 7.175781 15.972657 16 16h112zm0 0" fill="#ffc477"/><path d="m144 433.394531h-48v-49.679687c3 2.660156 5.261719 6.046875 6.558594 9.839844.480468 0 .960937-.160157 1.441406-.160157 2.6875-.019531 5.371094.25 8 .800781 18.625 3.800782 32.003906 20.1875 32 39.199219zm0 0" fill="#a97c50"/><path d="m244.71875 60.675781c.960938-.988281 2.070312-1.824219 3.28125-2.480469-6.242188-3.65625-14.164062-2.636718-19.28125 2.480469l-132.71875 132.71875h16zm0 0" fill="#ffb655"/><path d="m96 193.394531v16l16-16zm0 0" fill="#a97c50"/><path d="m192 305.394531h16v128h-16zm0 0" fill="#5e3d21"/><path d="m120 321.394531h16v48h-16zm0 0" fill="#d1d3d4"/><path d="m312 321.394531h16v48h-16zm0 0" fill="#d1d3d4"/><path d="m240 33.394531h208c8.835938 0 16 7.164063 16 16v96c0 8.835938-7.164062 16-16 16h-208c-8.835938 0-16-7.164062-16-16v-96c0-8.835937 7.164062-16 16-16zm0 0" fill="#ffa733"/><path d="m96 394.195312c18.625 3.800782 32.003906 20.1875 32 39.199219h-120c0-13.253906 10.746094-24 24-24 3.671875.023438 7.285156.898438 10.558594 2.558594-1.660156-3.273437-2.535156-6.886719-2.558594-10.558594-.035156-11.707031 8.40625-21.722656 19.953125-23.667969 11.546875-1.945312 22.804687 4.753907 26.605469 15.828126.480468 0 .960937-.160157 1.441406-.160157 2.6875-.019531 5.371094.25 8 .800781zm0 0" fill="#00ccb3"/><path d="m416 177.394531h-48l-16-16h48zm0 0" fill="#ff5023"/><path d="m192 305.394531h96v8h-96zm0 0" fill="#5e3d21"/><path d="m168 313.394531h-48c-4.417969 0-8 3.582031-8 8v48c0 4.417969 3.582031 8 8 8h48c4.417969 0 8-3.582031 8-8v-48c0-4.417969-3.582031-8-8-8zm-8 48h-32v-32h32zm0 0"/><path d="m280 225.394531h-80c-8.835938 0-16 7.164063-16 16v32c0 8.835938 7.164062 16 16 16h80c8.835938 0 16-7.164062 16-16v-32c0-8.835937-7.164062-16-16-16zm0 24h-32v-8h32zm-48-8v8h-32v-8zm-32 24h32v8h-32zm48 8v-8h32v8zm0 0"/><path d="m439.304688 385.945312c-1.992188-10.519531-8.117188-19.804687-17.011719-25.769531-8.890625-5.96875-19.800781-8.121093-30.292969-5.980469v-141.488281l14.34375 14.34375c9.75 9.75 25.5625 9.75 35.3125 0s9.75-25.5625 0-35.3125l-22.34375-22.34375h28.6875c13.253906 0 24-10.746093 24-24v-96c0-13.253906-10.746094-24-24-24h-172.6875l-18.402344-18.398437c-9.363281-9.328125-24.503906-9.328125-33.871094 0l-184.695312 184.742187c-9.75 9.75-9.75 25.5625 0 35.3125s25.5625 9.75 35.3125 0l14.34375-14.34375v167.742188c-8.710938-10.105469-22.800781-13.714844-35.296875-9.039063-12.5 4.671875-20.761719 16.640625-20.703125 29.984375-17.671875 0-32 14.328125-32 32 0 4.417969 3.582031 8 8 8h464c4.417969 0 8-3.582031 8-8-.03125-23.679687-17.296875-43.8125-40.695312-47.449219zm-71.367188-16.222656c0-.113281.0625-.207031.0625-.328125v-48c0-4.417969-3.582031-8-8-8h-48c-4.417969 0-8 3.582031-8 8v48c0 4.417969 3.582031 8 8 8h48c1.457031-.035156 2.875-.484375 4.089844-1.289062-2.660156 5.378906-4.058594 11.292969-4.089844 17.289062v.800781c-15.675781 3.246094-27.914062 15.515626-31.121094 31.199219h-32.878906v-120c0-4.417969-3.582031-8-8-8h-96c-4.417969 0-8 3.582031-8 8v120h-48.710938c-2.933593-17.152343-14.898437-31.382812-31.289062-37.214843v-186.785157h272v160.207031c-3.0625 2.308594-5.777344 5.042969-8.0625 8.121094zm-15.9375-40.328125v32h-32v-32zm78.34375-126.34375c3.496094 3.507813 3.496094 9.183594 0 12.6875-3.511719 3.488281-9.175781 3.488281-12.6875 0l-46.34375-46.34375h25.375zm25.65625-153.65625v96c0 4.417969-3.582031 8-8 8h-208c-4.417969 0-8-3.582031-8-8v-96c0-4.417969 3.582031-8 8-8h208c4.417969 0 8 3.582031 8 8zm-393.65625 166.34375c-3.507812 3.496094-9.179688 3.496094-12.6875 0-3.488281-3.507812-3.488281-9.175781 0-12.6875l184.742188-184.71875c3.117187-3.082031 8.132812-3.082031 11.25 0l7.0625 7.0625h-12.710938c-13.253906 0-24 10.746094-24 24v12.6875zm153.65625-131.03125v60.6875c0 13.253907 10.746094 24 24 24h108.6875l16 16h-249.375zm-197.847656 340.6875c4.207031-7.230469 13.289062-9.980469 20.800781-6.296875 3.070313 1.519532 6.769531.910156 9.191406-1.511718 2.425781-2.421876 3.039063-6.117188 1.527344-9.191407-1.089844-2.171875-1.660156-4.570312-1.671875-7-.023438-7.800781 5.601562-14.472656 13.296875-15.769531 7.691406-1.296875 15.195313 3.167969 17.726563 10.546875 1.101562 3.367187 4.335937 5.570313 7.871093 5.359375.375.003906.746094-.039062 1.105469-.136719 14.585938.015625 27.320312 9.882813 30.984375 24zm181.847656 0v-112h80v112zm145.367188 0c3.285156-9.453125 12.128906-15.847656 22.136718-16 .273438 0 1.082032.121094 1.351563.128907 2.535156.097656 4.96875-1.011719 6.558593-2.992188 1.585938-1.980469 2.140626-4.59375 1.488282-7.046875-.5625-1.984375-.867188-4.03125-.902344-6.089844 0-13.253906 10.746094-24 24-24s24 10.746094 24 24c0 4.417969 3.582031 8 8 8 14.585938.015625 27.320312 9.882813 30.984375 24zm0 0"/><path d="m224 337.394531h-16v16h8v16h-8v16h16c4.417969 0 8-3.582031 8-8v-32c0-4.417969-3.582031-8-8-8zm0 0"/><path d="m240 137.394531h16v-32c9.011719.667969 15.988281 8.171875 16 17.207031v14.792969h16v-14.75c-.015625-8.421875-3.246094-16.515625-9.03125-22.632812 7.96875-6.335938 11.050781-17.027344 7.679688-26.632813-3.375-9.609375-12.464844-16.023437-22.648438-15.984375h-16c-4.417969 0-8 3.582031-8 8zm16-64h8c4.417969 0 8 3.582031 8 8s-3.582031 8-8 8h-8zm0 0"/><path d="m304 137.394531h32v-16h-24v-16h16v-16h-16v-16h24v-16h-32c-4.417969 0-8 3.582031-8 8v64c0 4.417969 3.582031 8 8 8zm0 0"/><path d="m360 99.28125 16.800781 33.691406c1.632813 3.371094 5.386719 5.15625 9.03125 4.300782 3.648438-.859376 6.210938-4.132813 6.167969-7.878907v-72h-16v38.113281l-16.800781-33.6875c-1.632813-3.375-5.386719-5.160156-9.03125-4.300781-3.648438.855469-6.210938 4.128907-6.167969 7.875v72h16zm0 0"/><path d="m416 137.394531h16v-64h16v-16h-48v16h16zm0 0"/></svg>