<?xml version="1.0" encoding="iso-8859-1"?>
<!-- Generator: Adobe Illustrator 19.1.0, SVG Export Plug-In . SVG Version: 6.00 Build 0)  -->
<svg version="1.1" id="Capa_1" xmlns="http://www.w3.org/2000/svg" xmlns:xlink="http://www.w3.org/1999/xlink" x="0px" y="0px"
	 viewBox="0 0 297 297" style="enable-background:new 0 0 297 297;" xml:space="preserve">
<g>
	<path style="fill:#C52D2F;" d="M222.833,246.5h42v-214h-42V246.5z M234.833,57.5c0-4.418,3.582-8,8-8s8,3.582,8,8v17
		c0,4.418-3.582,8-8,8s-8-3.582-8-8V57.5z M234.833,106.5c0-4.418,3.582-8,8-8s8,3.582,8,8v17c0,4.418-3.582,8-8,8s-8-3.582-8-8
		V106.5z M234.833,156.5c0-4.418,3.582-8,8-8s8,3.582,8,8v17c0,4.418-3.582,8-8,8s-8-3.582-8-8V156.5z M234.833,206.5
		c0-4.418,3.582-8,8-8s8,3.582,8,8v17c0,4.418-3.582,8-8,8s-8-3.582-8-8V206.5z"/>
	<path d="M242.833,181.5c4.418,0,8-3.582,8-8v-17c0-4.418-3.582-8-8-8s-8,3.582-8,8v17C234.833,177.918,238.415,181.5,242.833,181.5
		z"/>
	<path d="M242.833,231.5c4.418,0,8-3.582,8-8v-17c0-4.418-3.582-8-8-8s-8,3.582-8,8v17C234.833,227.918,238.415,231.5,242.833,231.5
		z"/>
	<path d="M242.833,131.5c4.418,0,8-3.582,8-8v-17c0-4.418-3.582-8-8-8s-8,3.582-8,8v17C234.833,127.918,238.415,131.5,242.833,131.5
		z"/>
	<path d="M242.833,82.5c4.418,0,8-3.582,8-8v-17c0-4.418-3.582-8-8-8s-8,3.582-8,8v17C234.833,78.918,238.415,82.5,242.833,82.5z"/>
	<path style="fill:#FFB929;" d="M31.833,246.5h44v-214h-44V246.5z M47.833,57.5c0-4.418,3.582-8,8-8s8,3.582,8,8v17
		c0,4.418-3.582,8-8,8s-8-3.582-8-8V57.5z M47.833,106.5c0-4.418,3.582-8,8-8s8,3.582,8,8v17c0,4.418-3.582,8-8,8s-8-3.582-8-8
		V106.5z M47.833,156.5c0-4.418,3.582-8,8-8s8,3.582,8,8v17c0,4.418-3.582,8-8,8s-8-3.582-8-8V156.5z M47.833,206.5
		c0-4.418,3.582-8,8-8s8,3.582,8,8v17c0,4.418-3.582,8-8,8s-8-3.582-8-8V206.5z"/>
	<path d="M55.833,181.5c4.418,0,8-3.582,8-8v-17c0-4.418-3.582-8-8-8s-8,3.582-8,8v17C47.833,177.918,51.416,181.5,55.833,181.5z"/>
	<path d="M55.833,231.5c4.418,0,8-3.582,8-8v-17c0-4.418-3.582-8-8-8s-8,3.582-8,8v17C47.833,227.918,51.416,231.5,55.833,231.5z"/>
	<path d="M55.833,131.5c4.418,0,8-3.582,8-8v-17c0-4.418-3.582-8-8-8s-8,3.582-8,8v17C47.833,127.918,51.416,131.5,55.833,131.5z"/>
	<path d="M55.833,82.5c4.418,0,8-3.582,8-8v-17c0-4.418-3.582-8-8-8s-8,3.582-8,8v17C47.833,78.918,51.416,82.5,55.833,82.5z"/>
	<path style="fill:#C8F1DE;" d="M91.834,246.5h48v-41c0-4.418,3.582-8,8-8s8,3.582,8,8v41h51v-230h-115V246.5z M123.834,207.5
		c0,4.418-3.582,8-8,8c-4.418,0-8-3.582-8-8v-17c0-4.418,3.582-8,8-8c4.418,0,8,3.582,8,8V207.5z M123.834,157.5
		c0,4.418-3.582,8-8,8c-4.418,0-8-3.582-8-8v-17c0-4.418,3.582-8,8-8c4.418,0,8,3.582,8,8V157.5z M123.834,107.5
		c0,4.418-3.582,8-8,8c-4.418,0-8-3.582-8-8v-17c0-4.418,3.582-8,8-8c4.418,0,8,3.582,8,8V107.5z M123.834,58.5c0,4.418-3.582,8-8,8
		c-4.418,0-8-3.582-8-8v-17c0-4.418,3.582-8,8-8c4.418,0,8,3.582,8,8V58.5z M156.833,157.5c0,4.418-3.582,8-8,8s-8-3.582-8-8v-17
		c0-4.418,3.582-8,8-8s8,3.582,8,8V157.5z M156.833,107.5c0,4.418-3.582,8-8,8s-8-3.582-8-8v-17c0-4.418,3.582-8,8-8s8,3.582,8,8
		V107.5z M173.833,41.5c0-4.418,3.582-8,8-8s8,3.582,8,8v17c0,4.418-3.582,8-8,8s-8-3.582-8-8V41.5z M173.833,90.5
		c0-4.418,3.582-8,8-8s8,3.582,8,8v17c0,4.418-3.582,8-8,8s-8-3.582-8-8V90.5z M173.833,140.5c0-4.418,3.582-8,8-8s8,3.582,8,8v17
		c0,4.418-3.582,8-8,8s-8-3.582-8-8V140.5z M173.833,190.5c0-4.418,3.582-8,8-8s8,3.582,8,8v17c0,4.418-3.582,8-8,8s-8-3.582-8-8
		V190.5z M156.833,41.5v17c0,4.418-3.582,8-8,8s-8-3.582-8-8v-17c0-4.418,3.582-8,8-8S156.833,37.082,156.833,41.5z"/>
	<path d="M115.834,132.5c-4.418,0-8,3.582-8,8v17c0,4.418,3.582,8,8,8c4.418,0,8-3.582,8-8v-17
		C123.834,136.082,120.252,132.5,115.834,132.5z"/>
	<path d="M115.834,182.5c-4.418,0-8,3.582-8,8v17c0,4.418,3.582,8,8,8c4.418,0,8-3.582,8-8v-17
		C123.834,186.082,120.252,182.5,115.834,182.5z"/>
	<path d="M115.834,82.5c-4.418,0-8,3.582-8,8v17c0,4.418,3.582,8,8,8c4.418,0,8-3.582,8-8v-17
		C123.834,86.082,120.252,82.5,115.834,82.5z"/>
	<path d="M115.834,33.5c-4.418,0-8,3.582-8,8v17c0,4.418,3.582,8,8,8c4.418,0,8-3.582,8-8v-17
		C123.834,37.082,120.252,33.5,115.834,33.5z"/>
	<path d="M148.833,132.5c-4.418,0-8,3.582-8,8v17c0,4.418,3.582,8,8,8s8-3.582,8-8v-17C156.833,136.082,153.251,132.5,148.833,132.5
		z"/>
	<path d="M148.833,82.5c-4.418,0-8,3.582-8,8v17c0,4.418,3.582,8,8,8s8-3.582,8-8v-17C156.833,86.082,153.251,82.5,148.833,82.5z"/>
	<path d="M148.833,33.5c-4.418,0-8,3.582-8,8v17c0,4.418,3.582,8,8,8s8-3.582,8-8v-17C156.833,37.082,153.251,33.5,148.833,33.5z"/>
	<path d="M181.833,165.5c4.418,0,8-3.582,8-8v-17c0-4.418-3.582-8-8-8s-8,3.582-8,8v17C173.833,161.918,177.415,165.5,181.833,165.5
		z"/>
	<path d="M181.833,215.5c4.418,0,8-3.582,8-8v-17c0-4.418-3.582-8-8-8s-8,3.582-8,8v17C173.833,211.918,177.415,215.5,181.833,215.5
		z"/>
	<path d="M181.833,115.5c4.418,0,8-3.582,8-8v-17c0-4.418-3.582-8-8-8s-8,3.582-8,8v17C173.833,111.918,177.415,115.5,181.833,115.5
		z"/>
	<path d="M181.833,66.5c4.418,0,8-3.582,8-8v-17c0-4.418-3.582-8-8-8s-8,3.582-8,8v17C173.833,62.918,177.415,66.5,181.833,66.5z"/>
	<path style="fill:#A9BD34;" d="M274.167,280.5c2.754,0,7-3.864,7-9c0-4.963-4.037-9-9-9h-247c-4.963,0-9,4.037-9,9
		c0,5.299,4.523,9,11,9H274.167z"/>
	<path d="M280.833,248.183V24.5c0-4.418-3.249-8-7.667-8h-50.333v-8c0-4.418-3.249-8-7.667-8h-131c-4.418,0-8.333,3.582-8.333,8v8
		H24.167c-4.418,0-8.333,3.582-8.333,8v223.683C6.833,251.804,0,260.887,0,271.5c0,14.252,11.774,25,27.167,25h247
		c12.252,0,22.833-11.683,22.833-25C297,260.887,290.833,251.804,280.833,248.183z M16.167,271.5c0-4.963,4.037-9,9-9h247
		c4.963,0,9,4.037,9,9c0,5.136-4.246,9-7,9h-247C20.69,280.5,16.167,276.799,16.167,271.5z M264.833,246.5h-42v-214h42V246.5z
		 M206.833,16.5v230h-51v-41c0-4.418-3.582-8-8-8s-8,3.582-8,8v41h-48v-230H206.833z M75.834,246.5h-44v-214h44V246.5z"/>
</g>
<g>
</g>
<g>
</g>
<g>
</g>
<g>
</g>
<g>
</g>
<g>
</g>
<g>
</g>
<g>
</g>
<g>
</g>
<g>
</g>
<g>
</g>
<g>
</g>
<g>
</g>
<g>
</g>
<g>
</g>
</svg>
