<svg height="512pt" viewBox="0 -26 512 512" width="512pt" xmlns="http://www.w3.org/2000/svg"><g fill-rule="evenodd"><path d="m462 130h-432c-11 0-20 9-20 20v280c0 11 9 20 20 20h452c11 0 20-9 20-20v-280c0-11-9-20-20-20zm-412 40h412v240h-412zm0 0" fill="#dca98a"/><path d="m281 35c0 13.808594-11.191406 25-25 25s-25-11.191406-25-25 11.191406-25 25-25 25 11.191406 25 25zm0 0" fill="#858fa6"/><path d="m50 170h412v240h-412zm0 0" fill="#efc9b4"/></g><path d="m482 120h-17.53125l-174.058594-91.355469c-2.996094-16.273437-17.28125-28.644531-34.410156-28.644531s-31.414062 12.371094-34.410156 28.644531l-174.054688 91.355469h-17.535156c-16.542969 0-30 13.457031-30 30v280c0 16.539062 13.457031 30 30 30h452c16.542969 0 30-13.460938 30-30v-280c0-16.542969-13.457031-30-30-30zm-226-100c8.269531 0 15 6.730469 15 15s-6.730469 15-15 15-15-6.730469-15-15 6.726562-15 15-15zm236 410c0 5.511719-4.484375 10-10 10h-452c-5.515625 0-10-4.488281-10-10v-280c0-5.515625 4.484375-10 10-10h19.996094.011718.015626 39.976562c5.523438 0 10-4.476562 10-10 0-5.347656-4.203125-9.703125-9.480469-9.972656l133.78125-70.214844c5.585938 11.914062 17.691407 20.1875 31.699219 20.1875s26.113281-8.273438 31.699219-20.1875l133.730469 70.1875h-251.429688c-5.519531 0-10 4.476562-10 10s4.480469 10 10 10h291.976562.015626.015624 19.992188c5.515625 0 10 4.484375 10 10zm0 0"/><path d="m462 160h-412c-5.519531 0-10 4.476562-10 10v240c0 5.519531 4.480469 10 10 10h292c5.523438 0 10-4.480469 10-10 0-5.523438-4.476562-10-10-10h-282v-220h392v220h-30c-5.523438 0-10 4.476562-10 10 0 5.519531 4.476562 10 10 10h40c5.523438 0 10-4.480469 10-10v-240c0-5.523438-4.476562-10-10-10zm0 0"/><path d="m130.003906 140c5.523438 0 10-4.480469 10-10 0-5.523438-4.476562-10-10-10h-.007812c-5.519532 0-9.996094 4.476562-9.996094 10 0 5.519531 4.484375 10 10.003906 10zm0 0"/><path d="m382.003906 400h-.007812c-5.523438 0-9.996094 4.476562-9.996094 10 0 5.519531 4.480469 10 10.003906 10 5.523438 0 10-4.480469 10-10 0-5.523438-4.480468-10-10-10zm0 0"/><path d="m130.65625 321.214844h-14.566406c-5.519532 0-10 4.476562-10 10 0 5.523437 4.480468 10 10 10h14.566406c16.878906 0 30.609375-13.730469 30.609375-30.609375 0-16.875-13.730469-30.605469-30.609375-30.605469h-3.957031c-5.851563 0-10.609375-4.757812-10.609375-10.605469 0-5.851562 4.757812-10.609375 10.609375-10.609375h14.566406c5.519531 0 10-4.476562 10-10 0-5.523437-4.480469-10-10-10h-14.566406c-16.878907 0-30.609375 13.730469-30.609375 30.609375 0 16.875 13.730468 30.605469 30.609375 30.605469h3.957031c5.851562 0 10.609375 4.757812 10.609375 10.605469 0 5.851562-4.757813 10.609375-10.609375 10.609375zm0 0"/><path d="m237.4375 341.214844c5.523438 0 10-4.476563 10-10v-57.429688c0-19.300781-15.699219-35-35-35-19.296875 0-35 15.699219-35 35v57.429688c0 5.523437 4.480469 10 10 10 5.523438 0 10-4.476563 10-10v-18.714844h30v18.714844c0 5.523437 4.480469 10 10 10zm-40-48.714844v-18.714844c0-8.273437 6.730469-15 15-15 8.273438 0 15 6.726563 15 15v18.714844zm0 0"/><path d="m275.933594 238.785156c-5.523438 0-10 4.476563-10 10v82.429688c0 5.523437 4.476562 10 10 10h50c5.523437 0 10-4.476563 10-10 0-5.523438-4.476563-10-10-10h-40v-72.429688c0-5.523437-4.476563-10-10-10zm0 0"/><path d="m415.910156 331.214844c0-5.523438-4.476562-10-10-10h-35.175781v-21.214844h17.589844c5.519531 0 10-4.476562 10-10s-4.480469-10-10-10h-17.589844v-21.214844h35.175781c5.523438 0 10-4.476562 10-10 0-5.523437-4.476562-10-10-10h-45.175781c-5.523437 0-10 4.476563-10 10v82.429688c0 5.523437 4.476563 10 10 10h45.175781c5.523438 0 10-4.476563 10-10zm0 0"/></svg>