<svg height="483pt" viewBox="0 0 483 483.25514" width="483pt" xmlns="http://www.w3.org/2000/svg"><path d="m329.441406 169.316406c0 88.363282-71.632812 160-160 160-88.363281 0-160-71.636718-160-160 0-88.367187 71.636719-160 160-160 42.476563-.132812 83.25 16.679688 113.285156 46.714844 30.035157 30.035156 46.847657 70.808594 46.714844 113.285156zm0 0" fill="#96c8ef"/><path d="m249.441406 140.035156v125.28125c0 4.417969-3.582031 8-8 8h-144c-4.417968 0-8-3.582031-8-8v-125.28125l80-58.71875zm0 0" fill="#ffc477"/><path d="m465.441406 417.316406c12.964844 13.304688 12.824219 34.554688-.308594 47.6875-13.132812 13.136719-34.386718 13.273438-47.691406.3125l-72-72c-12.960937-13.304687-12.824218-34.558594.3125-47.691406 13.132813-13.132812 34.386719-13.273438 47.6875-.308594zm0 0" fill="#00ccb3"/><path d="m193.441406 209.316406h32v32h-32zm0 0" fill="#e6e7e8"/><path d="m121.441406 209.316406h48v64h-48zm0 0" fill="#8b5e3c"/><path d="m193.441406 153.316406c0 13.253906-10.742187 24-24 24-13.253906 0-24-10.746094-24-24 0-13.257812 10.746094-24 24-24 13.257813 0 24 10.742188 24 24zm0 0" fill="#ffd422"/><path d="m177.441406 87.15625-72 52.878906-16 11.761719v-11.761719l80-58.71875zm0 0" fill="#ffb655"/><path d="m193.441406 209.316406h16v32h-16zm0 0" fill="#d1d3d4"/><path d="m121.441406 209.316406h16v64h-16zm0 0" fill="#754c29"/><path d="m121.441406 209.316406h48v8h-48zm0 0" fill="#754c29"/><path d="m300.164062 148.996094c-.007812 5.394531-3.046874 10.328125-7.863281 12.761718-4.816406 2.433594-10.589843 1.953126-14.9375-1.242187l-27.921875-20.480469-80-58.71875-80 58.71875-27.917968 20.480469c-2.445313 1.761719-5.386719 2.714844-8.402344 2.71875-4.796875 0-9.285156-2.363281-12-6.320313-4.253906-6.457031-2.625-15.125 3.683594-19.597656l124.636718-88 124.640625 88c3.792969 2.683594 6.058594 7.03125 6.082031 11.679688zm0 0" fill="#ff6243"/><path d="m298.699219 130.753906-124.648438-88c-2.761719-1.945312-6.453125-1.945312-9.214843 0l-124.648438 88c-6.609375 4.597656-10.230469 12.402344-9.464844 20.417969s5.796875 14.996094 13.15625 18.257813c7.363282 3.261718 15.910156 2.300781 22.363282-2.515626l15.199218-11.199218v109.601562c0 8.835938 7.164063 16 16 16h144c8.839844 0 16-7.164062 16-16v-109.546875l15.203125 11.203125c6.457031 4.753906 14.972657 5.675782 22.296875 2.40625 7.324219-3.269531 12.328125-10.21875 13.101563-18.203125.773437-7.984375-2.800781-15.765625-9.359375-20.378906zm-169.257813 134.5625v-48h32v48zm112 0h-64v-56c0-4.417968-3.582031-8-8-8h-48c-4.417968 0-8 3.582032-8 8v56h-16v-121.28125l72-52.800781 72 52.800781zm49.601563-112.863281c-.949219 1.425781-2.441407 2.40625-4.128907 2.707031-1.691406.304688-3.429687-.097656-4.816406-1.109375l-107.949218-79.199219c-2.820313-2.070312-6.65625-2.070312-9.472657 0l-107.953125 79.199219c-1.816406 1.476563-4.304687 1.820313-6.453125.890625-2.152343-.925781-3.605469-2.972656-3.78125-5.304687-.171875-2.335938.964844-4.574219 2.953125-5.808594l120-84.722656 120 84.714843c2.796875 1.960938 3.507813 5.796876 1.601563 8.632813zm0 0"/><path d="m185.441406 209.316406v32c0 4.417969 3.582032 8 8 8h32c4.417969 0 8-3.582031 8-8v-32c0-4.417968-3.582031-8-8-8h-32c-4.417968 0-8 3.582032-8 8zm16 8h16v16h-16zm0 0"/><path d="m137.441406 153.316406c0 17.671875 14.328125 32 32 32 17.675782 0 32-14.328125 32-32 0-17.675781-14.324218-32-32-32-17.671875 0-32 14.324219-32 32zm48 0c0 8.835938-7.160156 16-16 16-8.835937 0-16-7.164062-16-16 0-8.835937 7.164063-16 16-16 8.839844 0 16 7.164063 16 16zm0 0"/><path d="m471.097656 411.660156-72-72c-14.203125-14.171875-36.449218-16.304687-53.085937-5.089844l-52.441407-52.457031c61.613282-67.761719 57.886719-172.308593-8.394531-235.515625-66.28125-63.203125-170.890625-61.960937-235.648437 2.800782-64.761719 64.761718-66.003906 169.367187-2.800782 235.648437 63.203126 66.28125 167.753907 70.007813 235.515626 8.394531l52.449218 52.449219c-11.199218 16.636719-9.070312 38.875 5.085938 53.082031l72 72c16.378906 16.378906 42.933594 16.378906 59.3125 0s16.378906-42.933594 0-59.3125zm-301.65625-90.34375c-83.945312 0-152-68.054687-152-152 0-83.949218 68.054688-152 152-152 83.949219 0 152 68.050782 152 152-.089844 83.90625-68.089844 151.90625-152 152zm290.34375 138.34375c-10.136718 10.113282-26.546875 10.113282-36.6875 0l-72-72c-9.933594-10.164062-9.84375-26.429687.207032-36.480468 10.050781-10.050782 26.316406-10.144532 36.480468-.207032l72 72c10.121094 10.132813 10.121094 26.550782 0 36.6875zm0 0"/></svg>