<svg id="Layer_5" enable-background="new 0 0 64 64" height="512" viewBox="0 0 64 64" width="512" xmlns="http://www.w3.org/2000/svg"><g><g><g><path d="m27 12h10c1.1 0 2 .9 2 2v10c0 1.1-.9 2-2 2h-10c-1.1 0-2-.9-2-2v-10c0-1.1.9-2 2-2z" fill="#b4dd7f"/></g><g><circle cx="10" cy="44" fill="#fcd770" r="3"/></g><g><circle cx="54" cy="44" fill="#fcd770" r="3"/></g><g><path d="m18 2v20h-8-8v-20z" fill="#e6e9ed"/></g><g><path d="m62 2v20h-8-8v-20z" fill="#e6e9ed"/></g><g><path d="m17 32v-4c0-1.1.9-2 2-2h8 10 8c1.1 0 2 .9 2 2v4c0 1.1-.9 2-2 2h-1-24-1c-1.1 0-2-.9-2-2z" fill="#ff826e"/></g><g><path d="m47 44v2c0 1.1-.9 2-2 2h-1-24-1c-1.1 0-2-.9-2-2v-2-2c0-1.1.9-2 2-2h1 24 1c1.1 0 2 .9 2 2z" fill="#ff826e"/></g><g><path d="m17 60v-4c0-1.1.9-2 2-2h1 24 1c1.1 0 2 .9 2 2v4c0 1.1-.9 2-2 2h-26c-1.1 0-2-.9-2-2z" fill="#ff826e"/></g><g><path d="m20 48h24v6h-24z" fill="#b4dd7f"/></g><g><path d="m20 34h24v6h-24z" fill="#b4dd7f"/></g><g><circle cx="32" cy="18" fill="#fcd770" r="3"/></g></g><g><path d="m32 14c-2.206 0-4 1.794-4 4 0 1.858 1.279 3.411 3 3.858v2.142h2v-2.142c1.721-.447 3-2 3-3.858 0-2.206-1.794-4-4-4zm0 6c-1.103 0-2-.897-2-2s.897-2 2-2 2 .897 2 2-.897 2-2 2z"/><path d="m63 23v-22h-18v22h8v17.142c-1.399.364-2.495 1.459-2.858 2.858h-2.142v-1c0-1.654-1.346-3-3-3v-4c1.654 0 3-1.346 3-3v-4c0-1.654-1.346-3-3-3h-5.184c.112-.314.184-.648.184-1v-10c0-1.302-.839-2.402-2-2.816v-4.184c0-3.309-2.691-6-6-6s-6 2.691-6 6v4.184c-1.161.414-2 1.514-2 2.816v10c0 .352.072.686.184 1h-5.184c-1.654 0-3 1.346-3 3v4c0 1.654 1.346 3 3 3v4c-1.654 0-3 1.346-3 3v1h-2.142c-.364-1.399-1.459-2.495-2.858-2.858v-17.142h8v-22h-18v22h8v17.142c-1.721.447-3 1.999-3 3.858 0 2.206 1.794 4 4 4 1.859 0 3.411-1.279 3.858-3h2.142v1c0 1.654 1.346 3 3 3v4c-1.654 0-3 1.346-3 3v4c0 1.654 1.346 3 3 3h26c1.654 0 3-1.346 3-3v-4c0-1.654-1.346-3-3-3v-4c1.654 0 3-1.346 3-3v-1h2.142c.447 1.721 1.999 3 3.858 3 2.206 0 4-1.794 4-4 0-1.859-1.279-3.411-3-3.858v-17.142zm-60-20h14v18h-14zm7 43c-1.103 0-2-.897-2-2s.897-2 2-2 2 .897 2 2-.897 2-2 2zm22-43c2.206 0 4 1.794 4 4v4h-8v-4c0-2.206 1.794-4 4-4zm-6 21v-10c0-.551.448-1 1-1h10c.552 0 1 .449 1 1v10c0 .551-.448 1-1 1h-10c-.552 0-1-.449-1-1zm-8 8v-4c0-.551.448-1 1-1h8 10 8c.552 0 1 .449 1 1v4c0 .551-.448 1-1 1h-26c-.552 0-1-.449-1-1zm3 3h22v4h-22zm25 21v4c0 .552-.448 1-1 1h-26c-.552 0-1-.448-1-1v-4c0-.552.448-1 1-1h26c.552 0 1 .448 1 1zm-3-3h-22v-4h22zm3-7c0 .552-.448 1-1 1h-26c-.552 0-1-.448-1-1v-4c0-.552.448-1 1-1h26c.552 0 1 .448 1 1zm10-2c0 1.103-.897 2-2 2s-2-.897-2-2 .897-2 2-2 2 .897 2 2zm-9-41h14v18h-14z"/><path d="m49 5h10v2h-10z"/><path d="m49 9h10v2h-10z"/><path d="m57 13h2v2h-2z"/><path d="m49 13h6v2h-6z"/><path d="m49 17h2v2h-2z"/><path d="m53 17h6v2h-6z"/><path d="m5 5h10v2h-10z"/><path d="m5 9h10v2h-10z"/><path d="m13 13h2v2h-2z"/><path d="m5 13h6v2h-6z"/><path d="m5 17h2v2h-2z"/><path d="m9 17h6v2h-6z"/><path d="m24 57h2v2h-2z"/><path d="m20 57h2v2h-2z"/><path d="m38 43h2v2h-2z"/><path d="m42 43h2v2h-2z"/><path d="m24 29h2v2h-2z"/><path d="m20 29h2v2h-2z"/></g></g></svg>