<svg id="Layer_3" enable-background="new 0 0 64 64" height="512" viewBox="0 0 64 64" width="512" xmlns="http://www.w3.org/2000/svg"><path d="m20 2h40v56h-40z" fill="#ccc"/><path d="m20 2h37v56h-37z" fill="#e6e6e6"/><path d="m44 16h6v10h-6z" fill="#71dbfb"/><path d="m44 16h3v10h-3z" fill="#aae9fd"/><path d="m44 30h6v10h-6z" fill="#71dbfb"/><path d="m44 30h3v10h-3z" fill="#aae9fd"/><path d="m20 2h10v10h-10z" fill="#71dbfb"/><path d="m20 2h6v10h-6z" fill="#aae9fd"/><path d="m30 2h10v10h-10z" fill="#71dbfb"/><path d="m30 2h6v10h-6z" fill="#aae9fd"/><path d="m40 2h10v10h-10z" fill="#71dbfb"/><path d="m40 2h6v10h-6z" fill="#aae9fd"/><path d="m50 2h10v10h-10z" fill="#71dbfb"/><path d="m50 2h6v10h-6z" fill="#aae9fd"/><path d="m50 16h10v10h-10z" fill="#71dbfb"/><path d="m50 16h6v10h-6z" fill="#aae9fd"/><path d="m50 30h10v10h-10z" fill="#71dbfb"/><path d="m50 30h6v10h-6z" fill="#aae9fd"/><path d="m4 16h40v42h-40z" fill="#ccc"/><path d="m4 16h37v42h-37z" fill="#e6e6e6"/><path d="m8 48h6v10h-6z" fill="#957552"/><path d="m8 48h3v10h-3z" fill="#c69c6d"/><path d="m14 48h6v10h-6z" fill="#957552"/><path d="m14 48h3v10h-3z" fill="#c69c6d"/><path d="m28 48h6v10h-6z" fill="#957552"/><path d="m28 48h3v10h-3z" fill="#c69c6d"/><path d="m34 48h6v10h-6z" fill="#957552"/><path d="m34 48h3v10h-3z" fill="#c69c6d"/><path d="m44 48h6v10h-6z" fill="#957552"/><path d="m44 48h3v10h-3z" fill="#c69c6d"/><path d="m4 30h10v10h-10z" fill="#71dbfb"/><path d="m4 30h6v10h-6z" fill="#aae9fd"/><path d="m14 30h10v10h-10z" fill="#71dbfb"/><path d="m14 30h6v10h-6z" fill="#aae9fd"/><path d="m24 30h10v10h-10z" fill="#71dbfb"/><path d="m24 30h6v10h-6z" fill="#aae9fd"/><path d="m34 30h10v10h-10z" fill="#71dbfb"/><path d="m34 30h6v10h-6z" fill="#aae9fd"/><path d="m2 58h60v4h-60z" fill="#808080"/><path d="m2 58h57v4h-57z" fill="#999"/><path d="m62 63h-60c-.552 0-1-.448-1-1v-4c0-.552.448-1 1-1h60c.552 0 1 .448 1 1v4c0 .552-.448 1-1 1zm-59-2h58v-2h-58z"/><path d="m45 58h-2v-41h-38v41h-2v-42c0-.552.448-1 1-1h40c.552 0 1 .448 1 1z"/><path d="m61 58h-2v-55h-38v13h-2v-14c0-.552.448-1 1-1h40c.552 0 1 .448 1 1z"/><path d="m20 11h40v2h-40z"/><path d="m29 2h2v10h-2z"/><path d="m39 2h2v10h-2z"/><path d="m49 2h2v10h-2z"/><path d="m44 25h16v2h-16z"/><path d="m49 16h2v10h-2z"/><path d="m49 30h2v10h-2z"/><path d="m44 15h16v2h-16z"/><path d="m44 29h16v2h-16z"/><path d="m44 43h16v2h-16z"/><path d="m51 58h-2v-9h-5v-2h6c.552 0 1 .448 1 1z"/><path d="m4 29h40v2h-40z"/><path d="m17 27h-2v-2.764l-.105.211c-.339.678-1.45.678-1.789 0l-.106-.211v2.764h-2v-7c0-.464.319-.867.77-.973.454-.105.917.111 1.125.526l1.105 2.211 1.105-2.211c.208-.415.67-.632 1.125-.526.451.106.77.509.77.973z"/><path d="m25 27h-2v-5c0-.551-.449-1-1-1s-1 .449-1 1v5h-2v-5c0-1.654 1.346-3 3-3s3 1.346 3 3z"/><path d="m20 23h4v2h-4z"/><path d="m31 27h-3c-.552 0-1-.448-1-1v-7h2v6h2z"/><path d="m37 27h-3c-.552 0-1-.448-1-1v-7h2v6h2z"/><path d="m21 58h-2v-9h-10v9h-2v-10c0-.552.448-1 1-1h12c.552 0 1 .448 1 1z"/><path d="m13 48h2v10h-2z"/><path d="m41 58h-2v-9h-10v9h-2v-10c0-.552.448-1 1-1h12c.552 0 1 .448 1 1z"/><path d="m33 48h2v10h-2z"/><path d="m4 39h40v2h-40z"/><path d="m44 39h16v2h-16z"/><path d="m13 30h2v10h-2z"/><path d="m23 30h2v10h-2z"/><path d="m33 30h2v10h-2z"/><path d="m7 43h14v2h-14z"/><path d="m27 43h14v2h-14z"/></svg>