<svg height="512pt" viewBox="0 0 512.00097 512" width="512pt" xmlns="http://www.w3.org/2000/svg"><g fill-rule="evenodd"><path d="m52.023438 156.101562 137.832031-101.40625 137.828125 101.40625 10.265625 7.554688c8.890625 6.515625 21.375 4.589844 27.894531-4.296875 6.511719-8.886719 4.589844-21.375-4.300781-27.890625l-159.890625-117.640625c-7.324219-5.371094-17.089844-5.007813-23.945313.257813l-159.542969 117.382812c-8.886718 6.515625-10.8125 19.003906-4.296874 27.890625 6.515624 8.890625 19.003906 10.8125 27.890624 4.296875zm0 0" fill="#ff6977"/><path d="m327.683594 202.742188v-46.640626l-137.828125-101.40625-137.832031 101.40625v163.417969h103.8125l94.539062-69.558593h-158.347656v-59.996094h195.652344v32.550781l22.328124-16.429687c5.03125-3.859376 11.628907-5.085938 17.675782-3.34375zm-157.828125-71.027344c0-11.046875 8.953125-20 20-20 11.042969 0 20 8.953125 20 20 0 11.042968-8.957031 20-20 20-11.046875 0-20-8.957032-20-20zm0 0" fill="#f9f9f9"/><path d="m209.855469 131.714844c0 11.042968-8.957031 20-20 20-11.046875 0-20-8.957032-20-20 0-11.046875 8.953125-20 20-20 11.042969 0 20 8.953125 20 20zm0 0" fill="#cee3ff"/><path d="m92.027344 189.964844h65.214844v59.996094h-65.214844zm0 0" fill="#cee3ff"/><path d="m157.246094 189.964844h65.21875v59.996094h-65.21875zm0 0" fill="#cee3ff"/><path d="m222.464844 189.964844v59.996094h27.910156l37.308594-27.445313v-32.550781zm0 0" fill="#cee3ff"/><path d="m155.835938 319.519531h-103.8125c-11 0-20 9-20 20s9.003906 20 20 20h132.304687v-11.414062l-10.265625 7.550781c-8.890625 6.515625-21.378906 4.59375-27.890625-4.296875-6.515625-8.886719-4.59375-21.375 4.296875-27.890625zm0 0" fill="#ff6977"/><path d="m52.023438 359.519531h132.304687v142.445313h-132.304687zm0 0" fill="#f9f9f9"/><path d="m184.328125 359.519531v142.445313h47.828125v-102.445313c0-11 9-20 20-20h140c11 0 20 9 20 20v102.445313h47.832031v-153.859375l-137.832031-101.410157-137.828125 101.410157zm117.828125-35.804687c0-11.046875 8.957031-20 20-20 11.046875 0 20 8.953125 20 20s-8.953125 20-20 20c-11.042969 0-20-8.953125-20-20zm0 0" fill="#f9f9f9"/><path d="m184.328125 348.105469 137.828125-101.410157 137.832031 101.410157 10.265625 7.554687c8.890625 6.515625 21.375 4.589844 27.890625-4.296875 6.515625-8.890625 4.59375-21.375-4.296875-27.890625l-159.894531-117.644531c-1.949219-1.429687-4.074219-2.453125-6.269531-3.085937-6.046875-1.742188-12.644532-.515626-17.671875 3.34375l-22.328125 16.429687-37.308594 27.445313-94.539062 69.558593-5.367188 3.953125c-8.890625 6.511719-10.8125 19-4.296875 27.890625 6.511719 8.886719 19 10.8125 27.890625 4.296875zm0 0" fill="#ff6977"/><path d="m342.15625 323.714844c0 11.046875-8.953125 20-20 20s-20-8.953125-20-20 8.953125-20 20-20 20 8.953125 20 20zm0 0" fill="#cee3ff"/><path d="m392.15625 379.519531h-140c-11 0-20 9-20 20v20.003907h180v-20.003907c0-11-9-20-20-20zm0 0" fill="#e8e7e9"/><path d="m232.15625 419.523438h180v40h-180zm0 0" fill="#e8e7e9"/><path d="m232.15625 459.523438h180v42.441406h-180zm0 0" fill="#e8e7e9"/><path d="m479.207031 199.464844c-19.289062-11.140625-37.546875-26.046875-50.9375-43.980469 14.699219-.6875 28.820313-3.167969 41.761719-10.640625l-.003906-.011719c1.472656-.851562 2.695312-2.175781 3.40625-3.867187 1.738281-4.125-.195313-8.875-4.324219-10.613282-34.453125-14.484374-51.867187-41.472656-61.964844-57.128906-6.390625-9.902344-10.625-14.230468-17.742187-14.230468-7.117188 0-11.351563 4.328124-17.742188 14.230468-6.925781 10.734375-17.292968 26.796875-34.230468 40.503906l24.113281 17.742188c8.890625 6.515625 10.8125 19.003906 4.296875 27.890625s-19 10.8125-27.890625 4.296875l-10.265625-7.554688v46.640626c2.195312.632812 4.320312 1.65625 6.269531 3.085937l111.03125 81.691406c17.289063-2.296875 34.355469-5.671875 51-10.132812v-.007813c2.003906-.535156 3.804687-1.835937 4.925781-3.773437 2.25-3.878907.925782-8.84375-2.953125-11.09375-19.804687-11.429688-36.46875-26.441407-52.898437-42.546875 10.9375-.898438 21.601562-2.78125 32.210937-5.625l-.007812-.023438c2.011719-.539062 3.816406-1.84375 4.933593-3.792968 2.230469-3.878907.890626-8.832032-2.988281-11.058594zm0 0" fill="#cbe557"/></g><path d="m499.773438 315.414062-29.699219-21.847656c9.652343-1.851562 19.183593-4.023437 28.5-6.519531.199219-.054687.398437-.113281.59375-.179687 4.40625-1.335938 8.082031-4.25 10.398437-8.25 5.003906-8.644532 2.046875-19.75-6.609375-24.765626-13.125-7.574218-24.96875-16.992187-35.917969-26.867187 4.257813-.839844 8.519532-1.835937 12.820313-2.984375.328125-.089844.652344-.195312.972656-.316406 4.25-1.394532 7.789063-4.265625 10.035157-8.175782 2.410156-4.191406 3.042968-9.074218 1.78125-13.742187-1.261719-4.667969-4.265626-8.5625-8.4375-10.960937-13.71875-7.921876-25.9375-17.273438-36.046876-27.53125 8.566407-1.671876 17.898438-4.589844 26.871094-9.769532.214844-.125.421875-.253906.625-.394531 3.136719-1.980469 5.542969-4.824219 6.988282-8.261719 1.878906-4.457031 1.910156-9.375.085937-13.855468-1.824219-4.480469-5.28125-7.980469-9.746094-9.859376-31.605469-13.289062-47.777343-38.355468-57.441406-53.332031-6.394531-9.914062-13.207031-18.808593-26.144531-18.808593s-19.75 8.898437-26.144532 18.808593c-5.695312 8.828125-13.933593 21.589844-26.34375 33.132813l-129.351562-95.171875c-10.640625-7.800781-25.371094-7.664063-35.851562.320312l-47.484376 34.9375c-4.449218 3.273438-5.402343 9.53125-2.128906 13.980469 3.273438 4.449219 9.53125 5.402344 13.980469 2.128906l47.554687-34.992187c.054688-.039063.109376-.082031.164063-.121094 3.484375-2.675781 8.394531-2.726563 11.929687-.136719l159.90625 117.652344c4.425782 3.246094 5.390626 9.488281 2.144532 13.914062-3.246094 4.429688-9.488282 5.390626-13.898438 2.15625l-148.097656-108.964843c-3.527344-2.59375-8.328125-2.59375-11.855469 0l-148.078125 108.953125c-4.425781 3.246094-10.671875 2.285156-13.914062-2.140625-1.574219-2.144531-2.214844-4.773438-1.8125-7.402344.40625-2.628906 1.808594-4.941406 3.96875-6.523437l47.550781-34.984376c4.445313-3.273437 5.398437-9.53125 2.125-13.980468-3.269531-4.449219-9.53125-5.402344-13.980469-2.128906l-47.535156 34.976562c-6.453125 4.726562-10.675781 11.6875-11.894531 19.597656-1.21875 7.90625.714843 15.816406 5.445312 22.269532 8.449219 11.523437 23.640625 15.234374 36.222657 9.699218v136.265625c-11.640626 4.128907-20 15.246094-20 28.28125 0 13.039063 8.359374 24.152344 20 28.28125v134.164063c0 5.523437 4.476562 10 10 10h407.960937c5.523437 0 10-4.476563 10-10v-134.988282c12.574219 5.535157 27.773437 1.824219 36.222656-9.703124 9.765625-13.320313 6.871094-32.101563-6.433593-41.859376zm-150.066407-137.90625c9.226563 0 18.339844-4.242187 24.199219-12.234374 9.761719-13.320313 6.871094-32.105469-6.4375-41.859376l-14.191406-10.441406c12.625-12.382812 20.921875-25.238281 26.785156-34.328125 6.226562-9.648437 7.878906-9.648437 9.339844-9.648437 1.457031 0 3.109375 0 9.335937 9.648437 9.871094 15.300781 27.964844 43.34375 62.910157 59.351563-9.113282 4.503906-19.746094 6.839844-33.84375 7.5-3.699219.171875-6.996094 2.371094-8.578126 5.714844-1.578124 3.347656-1.183593 7.292968 1.027344 10.257812 12.511719 16.753906 29.742188 32.011719 50.027344 44.332031-8.679688 2.097657-17.242188 3.476563-26.042969 4.199219-3.902343.320312-7.257812 2.886719-8.585937 6.566406-1.328125 3.683594-.390625 7.800782 2.40625 10.539063 14.96875 14.675781 31.472656 29.8125 51.007812 41.757812-13.46875 3.4375-27.371094 6.179688-41.4375 8.191407l-107.761718-79.292969c-.710938-.519531-1.441407-.996094-2.183594-1.449219v-21.351562c3.851562 1.699218 7.949218 2.546874 12.023437 2.546874zm-297.683593 152.011719h82.019531c-.625 1.761719-1.09375 3.59375-1.382813 5.484375-.765625 4.957032-.289062 9.917969 1.339844 14.515625h-81.976562c-5.511719 0-10-4.484375-10-10 0-5.511719 4.488281-10 10-10zm10 162.445313v-122.445313h100.175781c.042969 0 .085937.003907.128906.003907.039063 0 .082031-.003907.125-.003907h11.875v122.445313zm180.132812-62.441406h160v20h-160zm160-20h-160v-10.003907c0-5.511719 4.488281-10 10-10h140c5.515625 0 10 4.488281 10 10zm-160 60h160v22.441406h-160zm180 22.441406v-92.445313c0-16.539062-13.457031-30-30-30h-140c-16.542969 0-30 13.460938-30 30v92.445313h-27.828125v-138.804688l127.828125-94.050781 127.832031 94.050781v138.804688zm67.921875-146.515625c-3.242187 4.425781-9.488281 5.390625-13.898437 2.152343l-148.097657-108.960937c-3.523437-2.59375-8.324219-2.59375-11.851562 0l-148.082031 108.953125c-2.144532 1.570312-4.773438 2.214844-7.398438 1.808594-2.628906-.40625-4.941406-1.808594-6.515625-3.953125-1.570313-2.144531-2.210937-4.773438-1.808594-7.398438.40625-2.628906 1.808594-4.941406 3.96875-6.523437l12.28125-9.035156c4.449219-3.273438 5.398438-9.535157 2.125-13.980469-3.273437-4.449219-9.53125-5.402344-13.980469-2.128907l-4.265624 3.136719h-90.527344v-148.359375l127.828125-94.050781 127.828125 94.050781v31.191406c-4.871094.726563-9.59375 2.628907-13.671875 5.738282l-6.328125 4.652344v-12.777344c0-5.523438-4.480469-10-10-10h-195.65625c-5.523438 0-10 4.476562-10 10v60c0 5.519531 4.476562 10 10 10h128.097656c-3.441406 3.433594-3.960938 8.953125-.992188 12.988281 3.269532 4.449219 9.53125 5.398437 13.980469 2.125l82.824219-60.9375c.054688-.039063.109375-.082031.164062-.121094 3.480469-2.675781 8.390626-2.726562 11.925782-.136719l159.910156 117.652344c4.425781 3.246094 5.386719 9.488282 2.140625 13.914063zm-388.050781-105.488281v-39.996094h45.21875v39.996094zm65.21875-39.996094h45.21875v39.996094h-45.21875zm79.847656 39.996094h-14.628906v-39.996094h45.21875v17.492187zm0 0"/><path d="m189.855469 161.714844c16.539062 0 30-13.460938 30-30 0-16.542969-13.460938-30-30-30-16.542969 0-30 13.457031-30 30 0 16.539062 13.457031 30 30 30zm0-40c5.511719 0 10 4.484375 10 10 0 5.511718-4.488281 10-10 10-5.515625 0-10-4.488282-10-10 0-5.515625 4.484375-10 10-10zm0 0"/><path d="m322.15625 293.714844c-16.542969 0-30 13.460937-30 30 0 16.542968 13.457031 30 30 30s30-13.457032 30-30c0-16.539063-13.457031-30-30-30zm0 40c-5.511719 0-10-4.484375-10-10s4.488281-10 10-10c5.515625 0 10 4.484375 10 10s-4.484375 10-10 10zm0 0"/><path d="m97.933594 82.78125c2.257812 0 4.527344-.761719 6.398437-2.316406l.003907-.007813c4.246093-3.535156 4.816406-9.835937 1.277343-14.082031-3.535156-4.242188-9.84375-4.8125-14.085937-1.277344-4.242188 3.535156-4.816406 9.84375-1.28125 14.085938 1.980468 2.371094 4.824218 3.597656 7.6875 3.597656zm0 0"/><path d="m188.964844 282.734375c-4.417969 3.3125-5.3125 9.582031-2 14 1.964844 2.617187 4.964844 4 8.007812 4 2.085938 0 4.191406-.652344 5.992188-2l.003906-.003906c4.417969-3.316407 5.3125-9.582031 2-14-3.316406-4.417969-9.585938-5.308594-14.003906-1.996094zm0 0"/></svg>