<svg id="Capa_1" enable-background="new 0 0 512 512" height="512" viewBox="0 0 512 512" width="512" xmlns="http://www.w3.org/2000/svg"><path d="m477.679 92.779h-443.358c-14.813 0-26.821 12.008-26.821 26.821v272.8c0 14.813 12.008 26.821 26.821 26.821h443.359c14.813 0 26.821-12.008 26.821-26.821v-272.8c-.001-14.813-12.009-26.821-26.822-26.821z" fill="#ffe565"/><path d="m477.679 92.779h-14.057c.571 2.178.878 4.463.878 6.821v203.226c0 53.237-43.157 96.395-96.395 96.395h-359.727c3.018 11.509 13.488 20 25.943 20h443.359c14.813 0 26.821-12.008 26.821-26.821v-272.8c-.001-14.813-12.009-26.821-26.822-26.821z" fill="#ffd508"/><g fill="#fff5f5"><path d="m86.472 358.76h-35.986c-2.761 0-4.999-2.238-4.999-4.999v-18.503c0-2.761 2.238-4.999 4.999-4.999h35.986c2.761 0 4.999 2.238 4.999 4.999v18.503c0 2.761-2.238 4.999-4.999 4.999z"/><path d="m156.799 358.76h-35.986c-2.761 0-4.999-2.238-4.999-4.999v-18.503c0-2.761 2.238-4.999 4.999-4.999h35.986c2.761 0 4.999 2.238 4.999 4.999v18.503c-.001 2.761-2.239 4.999-4.999 4.999z"/><path d="m238.83 358.76h-35.986c-2.761 0-4.999-2.238-4.999-4.999v-18.503c0-2.761 2.238-4.999 4.999-4.999h35.986c2.761 0 4.999 2.238 4.999 4.999v18.503c-.001 2.761-2.239 4.999-4.999 4.999z"/><path d="m309.156 358.76h-35.986c-2.761 0-4.999-2.238-4.999-4.999v-18.503c0-2.761 2.238-4.999 4.999-4.999h35.986c2.761 0 4.999 2.238 4.999 4.999v18.503c0 2.761-2.238 4.999-4.999 4.999z"/><path d="m391.187 358.76h-35.986c-2.761 0-4.999-2.238-4.999-4.999v-18.503c0-2.761 2.238-4.999 4.999-4.999h35.986c2.761 0 4.999 2.238 4.999 4.999v18.503c-.001 2.761-2.238 4.999-4.999 4.999z"/><path d="m461.514 358.76h-35.986c-2.761 0-4.999-2.238-4.999-4.999v-18.503c0-2.761 2.238-4.999 4.999-4.999h35.986c2.761 0 4.999 2.238 4.999 4.999v18.503c-.001 2.761-2.239 4.999-4.999 4.999z"/></g><path d="m461.514 330.26h-.981c-3.062 10.33-7.802 19.937-13.914 28.5h14.895c2.76 0 4.998-2.238 4.998-4.999v-18.503c0-2.76-2.238-4.998-4.998-4.998z" fill="#ebe1dc"/><path d="m176.905 220.79c-15.356.195-15.561 7.706-31.32 7.706-15.967 0-15.967-7.71-31.934-7.71-15.966 0-15.966 7.71-31.933 7.71-15.759 0-15.964-7.511-31.319-7.706-.338-.004-.614.271-.614.61v37.798c0 .85.689 1.54 1.54 1.54h124.655c.85 0 1.54-.689 1.54-1.54v-37.798c-.001-.339-.277-.615-.615-.61z" fill="#72d1fb"/><path d="m176.905 188.51c-15.356.195-15.561 7.706-31.32 7.706-15.967 0-15.967-7.71-31.934-7.71-15.966 0-15.966 7.71-31.933 7.71-15.759 0-15.964-7.511-31.319-7.706-.338-.004-.614.271-.614.61v32.28c0-.338.276-.614.614-.61 15.355.195 15.56 7.706 31.319 7.706 15.966 0 15.966-7.71 31.933-7.71s15.967 7.71 31.934 7.71c15.76 0 15.964-7.511 31.32-7.706.338-.004.614.271.614.61v-32.28c0-.339-.276-.614-.614-.61z" fill="#93dcfc"/><path d="m176.905 156.23c-15.356.195-15.561 7.706-31.32 7.706-15.967 0-15.967-7.71-31.934-7.71-15.966 0-15.966 7.71-31.933 7.71-15.759 0-15.964-7.511-31.319-7.706-.338-.004-.614.271-.614.61v32.28c0-.338.276-.614.614-.61 15.355.195 15.56 7.706 31.319 7.706 15.966 0 15.966-7.71 31.933-7.71s15.967 7.71 31.934 7.71c15.76 0 15.964-7.511 31.32-7.706.338-.004.614.271.614.61v-32.28c0-.338-.276-.614-.614-.61z" fill="#b4e7fd"/><path d="m348.572 152.287c-6.903 0-12.5 5.597-12.5 12.5v87.429c0 6.903 5.597 12.5 12.5 12.5s12.5-5.597 12.5-12.5v-87.429c0-6.904-5.597-12.5-12.5-12.5z" fill="#fff5f5"/><path d="m427.858 152.287h-31.286c-6.903 0-12.5 5.596-12.5 12.5v87.429c0 6.903 5.597 12.5 12.5 12.5s12.5-5.597 12.5-12.5v-31.214h18.786c18.944 0 34.357-15.413 34.357-34.357.001-18.946-15.412-34.358-34.357-34.358zm0 43.714h-18.786v-18.714h18.786c5.16 0 9.357 4.198 9.357 9.357.001 5.159-4.197 9.357-9.357 9.357z" fill="#fff5f5"/><path d="m307.161 152.814c-6.616-1.985-13.581 1.768-15.565 8.38l-14.414 48.034-14.809-48.118c-2.031-6.598-9.027-10.3-15.624-8.271-6.598 2.031-10.301 9.026-8.271 15.624l26.906 87.429c1.615 5.246 6.461 8.823 11.947 8.823h.044c5.503-.02 10.347-3.636 11.929-8.907l26.236-87.429c1.986-6.612-1.766-13.581-8.379-15.565z" fill="#fff5f5"/><path d="m477.68 85.279h-443.36c-18.924 0-34.32 15.397-34.32 34.321v272.8c0 18.924 15.396 34.321 34.321 34.321h386.208c4.143 0 7.5-3.358 7.5-7.5s-3.357-7.5-7.5-7.5h-386.208c-10.654 0-19.321-8.668-19.321-19.321v-272.8c0-10.653 8.667-19.321 19.32-19.321h443.36c10.653 0 19.32 8.667 19.32 19.321v272.8c0 10.653-8.667 19.321-19.32 19.321h-22.15c-4.143 0-7.5 3.358-7.5 7.5s3.357 7.5 7.5 7.5h22.15c18.924 0 34.32-15.396 34.32-34.321v-272.8c0-18.924-15.396-34.321-34.32-34.321z"/><path d="m50.486 322.76c-6.892 0-12.499 5.607-12.499 12.499v18.503c0 6.892 5.607 12.499 12.499 12.499h35.986c6.892 0 12.499-5.607 12.499-12.499v-18.503c0-6.892-5.607-12.499-12.499-12.499zm33.485 28.5h-30.983v-13.5h30.983z"/><path d="m120.813 322.76c-6.892 0-12.499 5.607-12.499 12.499v18.503c0 6.892 5.607 12.499 12.499 12.499h35.986c6.892 0 12.499-5.607 12.499-12.499v-18.503c0-6.892-5.607-12.499-12.499-12.499zm33.484 28.5h-30.983v-13.5h30.983z"/><path d="m202.844 322.76c-6.892 0-12.499 5.607-12.499 12.499v18.503c0 6.892 5.607 12.499 12.499 12.499h35.986c6.892 0 12.499-5.607 12.499-12.499v-18.503c0-6.892-5.607-12.499-12.499-12.499zm33.484 28.5h-30.983v-13.5h30.983z"/><path d="m273.171 322.76c-6.892 0-12.499 5.607-12.499 12.499v18.503c0 6.892 5.607 12.499 12.499 12.499h35.985c6.892 0 12.498-5.607 12.498-12.499v-18.503c0-6.892-5.606-12.499-12.498-12.499zm33.483 28.5h-30.982v-13.5h30.982z"/><path d="m355.201 366.26h35.985c6.892 0 12.499-5.607 12.499-12.499v-18.503c0-6.892-5.607-12.499-12.499-12.499h-35.985c-6.892 0-12.498 5.607-12.498 12.499v18.503c0 6.892 5.607 12.499 12.498 12.499zm2.502-28.5h30.982v13.5h-30.982z"/><path d="m425.528 366.26h35.985c6.892 0 12.498-5.607 12.498-12.499v-18.503c0-6.892-5.606-12.499-12.498-12.499h-35.985c-6.892 0-12.499 5.607-12.499 12.499v18.503c0 6.892 5.608 12.499 12.499 12.499zm2.501-28.5h30.982v13.5h-30.982z"/><path d="m185.019 259.197v-102.357c0-4.4-3.548-8.126-8.209-8.109-16.79.214-18.361 7.706-31.225 7.706-13.275 0-14.311-7.71-31.935-7.71-17.514 0-18.715 7.71-31.933 7.71-13.142 0-14.171-7.489-31.233-7.706-4.586-.034-8.201 3.661-8.201 8.109v102.357c0 4.984 4.055 9.04 9.04 9.04h79.29c4.142 0 7.5-3.358 7.5-7.5s-3.358-7.5-7.5-7.5h-73.33v-24.005c6.169 1.827 10.805 6.765 24.434 6.765 17.514 0 18.715-7.71 31.933-7.71 13.275 0 14.311 7.71 31.935 7.71 13.624 0 18.275-4.941 24.434-6.765v24.005h-4.405c-4.142 0-7.5 3.358-7.5 7.5s3.358 7.5 7.5 7.5h10.366c4.984-.001 9.039-4.056 9.039-9.04zm-103.301-87.76c17.514 0 18.715-7.71 31.933-7.71 13.275 0 14.311 7.71 31.935 7.71 13.604 0 18.288-4.943 24.434-6.766v16.925c-11.65 1.954-12.958 7.12-24.434 7.12-13.275 0-14.311-7.71-31.935-7.71-17.514 0-18.715 7.71-31.933 7.71-11.506 0-12.714-5.155-24.434-7.12v-16.925c6.169 1.828 10.8 6.766 24.434 6.766zm63.867 49.559c-13.275 0-14.311-7.71-31.935-7.71-17.514 0-18.715 7.71-31.933 7.71-11.506 0-12.734-5.159-24.434-7.121v-16.924c6.169 1.828 10.8 6.765 24.434 6.765 17.514 0 18.715-7.71 31.933-7.71 13.275 0 14.311 7.71 31.935 7.71 13.624 0 18.275-4.941 24.434-6.765v16.924c-11.65 1.954-12.958 7.121-24.434 7.121z"/><path d="m368.572 252.215v-87.429c0-11.028-8.972-20-20-20s-20 8.972-20 20v87.429c0 11.028 8.972 20 20 20s20-8.972 20-20zm-25 0v-87.429c0-2.757 2.243-5 5-5s5 2.243 5 5v87.429c0 2.757-2.243 5-5 5s-5-2.243-5-5z"/><path d="m409.072 203.501h18.786c9.295 0 16.857-7.562 16.857-16.857s-7.563-16.857-16.857-16.857h-18.786c-4.143 0-7.5 3.358-7.5 7.5v18.714c0 4.142 3.358 7.5 7.5 7.5zm7.5-18.714h11.286c1.024 0 1.857.833 1.857 1.857s-.833 1.857-1.857 1.857h-11.286z"/><path d="m416.572 252.215v-23.714h11.286c23.08 0 41.857-18.777 41.857-41.857s-18.777-41.857-41.857-41.857h-31.286c-11.028 0-20 8.972-20 20v12.5c0 4.142 3.357 7.5 7.5 7.5s7.5-3.358 7.5-7.5v-12.5c0-2.757 2.243-5 5-5h31.286c14.81 0 26.857 12.048 26.857 26.857s-12.048 26.857-26.857 26.857h-18.786c-4.143 0-7.5 3.358-7.5 7.5v31.214c0 2.757-2.243 5-5 5s-5-2.243-5-5v-39.929c0-4.142-3.357-7.5-7.5-7.5s-7.5 3.358-7.5 7.5v39.929c0 11.028 8.972 20 20 20s20-8.972 20-20z"/><path d="m309.317 145.63c-.001 0-.001 0 0 0-10.566-3.166-21.735 2.846-24.905 13.408l-7.321 24.397-7.55-24.532c-3.244-10.539-14.456-16.477-24.998-13.232-10.54 3.244-16.476 14.458-13.232 24.998l26.906 87.43c2.6 8.443 10.281 14.116 19.186 14.116 8.867-.032 16.537-5.759 19.086-14.251l26.236-87.429c3.176-10.588-2.82-21.727-13.408-24.905zm-.96 20.594-26.236 87.429c-1.414 4.713-8.114 4.755-9.568.034l-26.905-87.428c-.811-2.635.673-5.439 3.308-6.25 2.641-.813 5.441.68 6.25 3.308l14.809 48.118c.969 3.147 3.877 5.294 7.168 5.294h.026c3.302-.012 6.208-2.182 7.157-5.344l14.414-48.034c.792-2.641 3.588-4.144 6.226-3.352 2.644.792 4.146 3.575 3.351 6.225z"/></svg>