<svg id="Capa_1" enable-background="new 0 0 497.002 497.002" height="512" viewBox="0 0 497.002 497.002" width="512" xmlns="http://www.w3.org/2000/svg"><g><g><path d="m248.501 331.47h151.523v-321.47h-151.523" fill="#c68a65"/><path d="m96.977 398.707h303.047v67.401h-303.047z" fill="#c68a65"/><g fill="#ddb9a3"><path d="m96.977 331.47h303.047v67.237h-303.047z"/><path d="m248.501 67.342v-57.342h-151.524v321.47h151.524v-182.419"/></g></g><g><path d="m86.978 466.108c0 5.522 4.478 10 10 10h15.994v11.257c0 12.84 20 12.858 20 0v-11.257h231.058v11.257c0 12.84 20 12.858 20 0v-11.257h15.994c5.522 0 10-4.478 10-10v-456.108c0-5.522-4.478-10-10-10h-151.523-151.523c-5.522 0-10 4.478-10 10zm303.047-124.637v47.236h-283.047v-47.236zm0-20h-131.524v-172.42c0-12.84-20-12.858-20 0v172.42h-131.523v-301.471h131.523v47.342c0 12.84 20 12.858 20 0v-47.342h131.523v301.471zm0 134.637h-283.047v-47.401h283.047z"/><path d="m257.734 361.268c-2.065-5.033-8.04-7.503-13.06-5.41-5.028 2.096-7.499 8.018-5.41 13.061 2.085 5.033 8.037 7.483 13.06 5.399 5.026-2.086 7.506-8.014 5.41-13.05z"/><path d="m239.264 436.228c1.609 3.928 5.74 6.477 9.974 6.148 4.261-.331 7.909-3.395 8.958-7.54 2.185-8.639-7.666-15.575-15.102-10.829-4.013 2.561-5.663 7.825-3.83 12.221z"/><path d="m288.868 218.929c5.522 0 10-4.478 10-10v-27.366c0-12.84-20-12.858-20 0v27.366c0 5.522 4.478 10 10 10z"/><path d="m207.373 171.563c-5.522 0-10 4.478-10 10v27.366c0 12.84 20 12.858 20 0v-27.366c0-5.523-4.477-10-10-10z"/><path d="m239.264 111.508c2.093 5.02 8.031 7.494 13.06 5.4 5.033-2.096 7.494-8.005 5.41-13.051-2.077-5.028-8.032-7.505-13.06-5.409-5.043 2.102-7.479 8.009-5.41 13.06z"/></g></g></svg>